<svg xmlns="http://www.w3.org/2000/svg" width="145" height="125" viewBox="0 0 145 125">
  <path id="Icon_awesome-camera" data-name="Icon awesome-camera" d="M145,33.5v80.357a13.5,13.5,0,0,1-13.594,13.393H13.594A13.5,13.5,0,0,1,0,113.857V33.5A13.5,13.5,0,0,1,13.594,20.107H38.516L42,10.927A13.569,13.569,0,0,1,54.715,2.25H90.257a13.569,13.569,0,0,1,12.716,8.677l3.512,9.18h24.922A13.5,13.5,0,0,1,145,33.5ZM106.484,73.679C106.484,55.208,91.248,40.2,72.5,40.2S38.516,55.208,38.516,73.679,53.752,107.161,72.5,107.161,106.484,92.15,106.484,73.679Zm-9.062,0A24.925,24.925,0,1,1,72.5,49.125,24.776,24.776,0,0,1,97.422,73.679Z" transform="translate(0 -2.25)" fill="#C7C7C7" opacity="0.73"/>
</svg>
