<svg xmlns="http://www.w3.org/2000/svg" width="119" height="22" viewBox="0 0 119 22"><defs><style>.a{fill:#b2b2b2;}.b{fill:#ea9e52;}</style></defs><path class="a" d="M11.061,2.56a1,1,0,0,1,1.878,0l1.827,4.982a1,1,0,0,0,.914.655l5.405.133a1,1,0,0,1,.569,1.8l-4.23,3.125a1,1,0,0,0-.362,1.1l1.53,4.966a1,1,0,0,1-1.508,1.128l-4.531-3.006a1,1,0,0,0-1.106,0L6.916,20.453a1,1,0,0,1-1.508-1.128l1.53-4.966a1,1,0,0,0-.362-1.1l-4.23-3.125a1,1,0,0,1,.569-1.8L8.32,8.2a1,1,0,0,0,.914-.655Z" transform="translate(95)"/><path class="b" d="M11.061,2.56a1,1,0,0,1,1.878,0l1.827,4.982a1,1,0,0,0,.914.655l5.405.133a1,1,0,0,1,.569,1.8l-4.23,3.125a1,1,0,0,0-.362,1.1l1.53,4.966a1,1,0,0,1-1.508,1.128l-4.531-3.006a1,1,0,0,0-1.106,0L6.916,20.453a1,1,0,0,1-1.508-1.128l1.53-4.966a1,1,0,0,0-.362-1.1l-4.23-3.125a1,1,0,0,1,.569-1.8L8.32,8.2a1,1,0,0,0,.914-.655Z" transform="translate(71)"/><path class="b" d="M11.061,2.56a1,1,0,0,1,1.878,0l1.827,4.982a1,1,0,0,0,.914.655l5.405.133a1,1,0,0,1,.569,1.8l-4.23,3.125a1,1,0,0,0-.362,1.1l1.53,4.966a1,1,0,0,1-1.508,1.128l-4.531-3.006a1,1,0,0,0-1.106,0L6.916,20.453a1,1,0,0,1-1.508-1.128l1.53-4.966a1,1,0,0,0-.362-1.1l-4.23-3.125a1,1,0,0,1,.569-1.8L8.32,8.2a1,1,0,0,0,.914-.655Z" transform="translate(47)"/><path class="b" d="M11.061,2.56a1,1,0,0,1,1.878,0l1.827,4.982a1,1,0,0,0,.914.655l5.405.133a1,1,0,0,1,.569,1.8l-4.23,3.125a1,1,0,0,0-.362,1.1l1.53,4.966a1,1,0,0,1-1.508,1.128l-4.531-3.006a1,1,0,0,0-1.106,0L6.916,20.453a1,1,0,0,1-1.508-1.128l1.53-4.966a1,1,0,0,0-.362-1.1l-4.23-3.125a1,1,0,0,1,.569-1.8L8.32,8.2a1,1,0,0,0,.914-.655Z" transform="translate(23)"/><path class="b" d="M11.061,2.56a1,1,0,0,1,1.878,0l1.827,4.982a1,1,0,0,0,.914.655l5.405.133a1,1,0,0,1,.569,1.8l-4.23,3.125a1,1,0,0,0-.362,1.1l1.53,4.966a1,1,0,0,1-1.508,1.128l-4.531-3.006a1,1,0,0,0-1.106,0L6.916,20.453a1,1,0,0,1-1.508-1.128l1.53-4.966a1,1,0,0,0-.362-1.1l-4.23-3.125a1,1,0,0,1,.569-1.8L8.32,8.2a1,1,0,0,0,.914-.655Z"/></svg>