 <svg width="100%" height="100%" viewBox="0 0 575 163" version="1.1" xmlns="http://www.w3.org/2000/svg" xmlns:xlink="http://www.w3.org/1999/xlink" xml:space="preserve" xmlns:serif="http://www.serif.com/" style="fill-rule:evenodd;clip-rule:evenodd;stroke-linejoin:round;stroke-miterlimit:2;">
                <g transform="matrix(1,0,0,1,-1185.92,-530.558)">
                    <g transform="matrix(1,0,0,3.58088,1437.09,-2183.81)">
                        <g  transform="matrix(1.12827,0,0,1,-307.271,-1.59428)">
                            <path d="M559.057,764.183C559.057,761.681 552.61,759.65 544.669,759.65L64.111,759.65C56.17,759.65 49.723,761.681 49.723,764.183L49.723,800.45C49.723,802.952 56.17,804.983 64.111,804.983L544.669,804.983C552.61,804.983 559.057,802.952 559.057,800.45L559.057,764.183Z" style="fill:rgb(115,118,120);fill-opacity:0.5;"/>
                        </g>
                        <g  transform="matrix(1,0,0,1,-4.67636,0.167969)">
                            <g  transform="matrix(0.27857,0,0,0.999648,-259.914,-1.53359)">
                                <path d="M559.057,763.613C559.057,761.426 536.234,759.65 508.123,759.65L100.657,759.65C72.546,759.65 49.723,761.426 49.723,763.613L49.723,801.019C49.723,803.207 72.546,804.983 100.657,804.983L508.123,804.983C536.234,804.983 559.057,803.207 559.057,801.019L559.057,763.613Z" style="fill:rgb(115,118,120);fill-opacity:0.5;"/>
                            </g>
                            <g  transform="matrix(0.27857,0,0,0.999648,-115.797,-1.53359)">
                                <path d="M559.057,763.613C559.057,761.426 536.234,759.65 508.123,759.65L100.657,759.65C72.546,759.65 49.723,761.426 49.723,763.613L49.723,801.019C49.723,803.207 72.546,804.983 100.657,804.983L508.123,804.983C536.234,804.983 559.057,803.207 559.057,801.019L559.057,763.613Z" style="fill:rgb(115,118,120);fill-opacity:0.5;"/>
                            </g>
                            <g  transform="matrix(0.27857,0,0,0.999648,28.3199,-1.53359)">
                                <path d="M559.057,763.613C559.057,761.426 536.234,759.65 508.123,759.65L100.657,759.65C72.546,759.65 49.723,761.426 49.723,763.613L49.723,801.019C49.723,803.207 72.546,804.983 100.657,804.983L508.123,804.983C536.234,804.983 559.057,803.207 559.057,801.019L559.057,763.613Z" style="fill:rgb(115,118,120);fill-opacity:0.5;"/>
                            </g>
                            <g  transform="matrix(0.27857,0,0,0.999648,172.437,-1.53359)">
                                <path d="M559.057,763.613C559.057,761.426 536.234,759.65 508.123,759.65L100.657,759.65C72.546,759.65 49.723,761.426 49.723,763.613L49.723,801.019C49.723,803.207 72.546,804.983 100.657,804.983L508.123,804.983C536.234,804.983 559.057,803.207 559.057,801.019L559.057,763.613Z" style="fill:rgb(115,118,120);fill-opacity:0.5;"/>
                            </g>
                        </g>
                        <g  onclick="ChangeBackground(this.id);">
                            <g transform="matrix(0.900696,0,0,0.251529,-576.436,697.149)">
                                <text x="902.248px" y="392.983px" style="font-family:'Arial-BoldMT', 'Arial', sans-serif;font-weight:700;font-size:12px;fill:rgb(208,210,211);">HOOD</text>
                            </g>
                            <g  transform="matrix(0.918808,0,0,0.862983,-1128.4,164.866)">
                                <g transform="matrix(1.01861,0,0,0.284458,1466.13,707.3)">
                                    <path d="M0,16.843C-0.72,17.062 -0.862,16.42 -0.551,16.179C-0.201,15.91 0.277,16.241 0,16.843M82.313,16.884C81.567,16.983 81.546,16.259 81.964,16.119C82.211,16.037 82.427,16.197 82.491,16.379C82.577,16.625 82.429,16.742 82.313,16.884M-2.652,18.358C-2.125,18.093 -1.867,18.924 -2.325,19.083C-2.601,19.179 -2.802,19.017 -2.87,18.858C-3,18.554 -2.815,18.44 -2.652,18.358M1.779,18.319C2.312,18.144 2.527,18.969 2.038,19.093C1.477,19.236 1.324,18.467 1.779,18.319M-0.569,21.264C-1.137,20.381 0.391,20.156 0.036,21.2C-0.255,21.332 -0.191,21.358 -0.569,21.264M79.766,18.33C80.291,18.122 80.515,18.94 80.068,19.086C79.486,19.279 79.276,18.526 79.766,18.33M84.591,19.048C83.834,19.274 83.754,18.618 84.044,18.387C84.223,18.244 84.481,18.28 84.608,18.432C84.873,18.741 84.591,18.962 84.591,19.048M81.935,20.563C82.468,20.297 82.71,21.075 82.32,21.269C82.048,21.403 81.789,21.274 81.72,21.072C81.615,20.778 81.756,20.653 81.935,20.563M-0.569,17.789C-0.016,17.604 0.479,17.984 0.619,18.377C0.826,18.964 0.442,19.515 0.012,19.634C-1.206,19.973 -1.839,18.216 -0.569,17.789M81.828,17.794C83.029,17.405 83.594,19.226 82.445,19.614C81.207,20.034 80.549,18.21 81.828,17.794M3.442,13.408C2.75,14.057 2.024,14.807 1.35,15.506C1.203,15.657 0.882,16.006 0.801,15.479L0.807,12.325C1.755,12.412 2.847,12.975 3.442,13.408M78.392,23.998C79.054,23.275 79.812,22.619 80.49,21.886C81.184,21.139 81.012,22.489 81.012,23.017C81.012,23.71 81.002,24.408 81.013,25.102C80.257,24.992 78.751,24.441 78.392,23.998M-4.011,23.998L-2.121,22.096C-1.831,21.806 -1.832,21.614 -1.388,21.75L-1.388,25.098C-2.107,25.029 -3.648,24.417 -4.011,23.998M-5.592,22.449C-6.048,21.76 -6.56,20.853 -6.677,19.799L-4.082,19.801C-3.958,19.801 -3.766,19.787 -3.651,19.795C-3.315,19.816 -3.101,19.966 -3.398,20.262L-4.357,21.21C-4.768,21.634 -5.213,22.027 -5.592,22.449M85.061,17.372C85.158,17.155 86.001,16.386 86.228,16.156C86.456,15.926 87.22,15.105 87.439,14.98C87.859,15.687 88.385,16.585 88.492,17.614L85.542,17.614C85.128,17.614 85.187,17.694 85.061,17.372M76.749,22.433C76.617,22.093 76.303,21.683 76.115,21.217C75.944,20.789 75.776,20.305 75.718,19.802L78.737,19.797C79.507,19.826 79.003,20.258 78.684,20.573C78.348,20.907 77.046,22.312 76.749,22.433M2.748,17.599C2.664,17.321 2.639,17.333 2.811,17.154L3.738,16.238C4.127,15.851 4.601,15.314 4.996,14.991C5.517,15.542 5.997,16.696 6.096,17.615L2.748,17.599ZM83.197,15.67L83.197,12.321C84.205,12.444 85.172,12.942 85.835,13.393C85.666,13.662 84.861,14.402 84.574,14.685L83.594,15.673C83.408,15.823 83.472,15.738 83.197,15.67M0.809,25.096L0.816,21.739C1.191,21.643 1.027,21.554 1.563,22.093C1.959,22.492 3.267,23.734 3.419,23.998C3.333,24.089 3.306,24.119 3.174,24.202C2.529,24.607 1.559,25.011 0.809,25.096M4.996,22.419C4.754,22.278 3.471,20.94 3.095,20.562C2.548,20.012 2.639,20.227 2.737,19.804L6.095,19.81C6.028,20.498 5.542,21.743 5.09,22.314C5.036,22.381 5.04,22.375 4.996,22.419M78.366,13.39C79.191,12.913 79.904,12.449 81.011,12.321L81.01,15.665C80.519,15.825 80.482,15.533 79.635,14.694C79.327,14.386 78.561,13.691 78.366,13.39M87.384,22.42C87.053,22.17 86.632,21.692 86.32,21.381C86.013,21.075 85.051,20.232 85.067,20.018C85.084,19.792 85.156,19.816 85.349,19.796L88.493,19.804C88.413,20.42 87.833,22.114 87.384,22.42M-6.671,17.615C-6.645,17.129 -6.42,16.536 -6.249,16.124C-6.131,15.838 -5.806,15.155 -5.538,14.968C-4.851,15.952 -2.479,17.494 -3.524,17.618L-6.671,17.615ZM83.218,21.739C83.496,21.631 83.51,21.637 83.686,21.804C84.101,22.197 85.696,23.774 85.815,23.998C85.804,24.01 85.789,24.025 85.78,24.032C85.203,24.542 83.887,25.02 83.197,25.098L83.218,21.739ZM-4.03,13.46C-3.889,13.259 -3.677,13.165 -3.451,13.035C-2.923,12.731 -1.993,12.365 -1.385,12.326L-1.388,15.659L-1.696,15.77L-4.03,13.46ZM75.716,17.619C75.791,16.954 76.257,15.62 76.746,15.073C76.819,14.992 76.777,15.032 76.85,14.974L79.159,17.284C79.041,17.729 79.041,17.622 78.489,17.615L75.716,17.619ZM71.506,19.521C70.927,11.615 78.693,6.051 85.915,8.78C89.66,10.195 92.424,13.821 92.706,17.925C93.129,24.081 88.496,28.888 82.859,29.311C80.729,29.47 78.259,28.895 76.555,27.771C74.911,26.685 73.734,25.61 72.691,23.659C72.066,22.489 71.616,21.025 71.506,19.521M81.331,11.161C83.584,10.903 85.852,11.823 87.033,12.939C87.727,13.595 88.2,14.07 88.749,15.026C89.206,15.822 89.553,16.889 89.656,17.919C90.103,22.329 86.834,25.822 82.962,26.252C78.476,26.75 74.936,23.416 74.549,19.468C74.123,15.108 77.246,11.631 81.331,11.161M10.304,19.521C9.663,27.312 1.331,31.615 -5.212,28.134C-7.577,26.878 -9.276,24.969 -10.216,22.526C-10.76,21.11 -11.014,19.565 -10.89,17.863C-10.483,12.267 -5.571,7.64 0.581,8.114C3.194,8.315 6.176,9.77 7.658,11.643C8.573,12.798 9.073,13.424 9.645,14.933C10.152,16.273 10.435,17.918 10.304,19.521M-7.874,19.153C-8.132,14.801 -4.776,11.375 -0.759,11.128C3.593,10.864 7.039,14.208 7.284,18.23C7.388,19.935 6.794,22.064 5.772,23.3C4.358,25.011 2.565,26.143 0.152,26.286C-2.333,26.434 -4.144,25.417 -5.437,24.31C-5.832,23.972 -5.975,23.709 -6.334,23.307C-7.175,22.367 -7.793,20.521 -7.874,19.153M101.309,10.639L101.309,9.154C101.126,8.673 101.3,7.244 100.476,6.183C98.853,4.09 95.517,3.315 92.859,2.509C91.882,2.211 90.796,2.011 89.792,1.78C81.913,-0.023 74.638,-1.111 66.403,-1.12C63.758,-1.124 63.304,-0.851 61.698,-2.091C60.944,-2.673 56.935,-4.889 55.831,-5.55C55.025,-6.031 54.144,-6.451 53.384,-6.903C51.757,-7.872 47.666,-9.938 45.985,-10.734C37.453,-14.772 21.792,-14.103 12.124,-13.335C10.188,-13.181 10.64,-13.22 9.263,-14.006C8.028,-14.71 7.461,-14.234 6.267,-13.938C6.263,-13.366 6.234,-12.792 6.117,-12.257C6.058,-12.16 5.292,-11.878 5.178,-11.832L2.398,-10.745C-1.589,-9.233 -4.801,-7.992 -8.778,-6.34C-10.031,-5.818 -11.203,-5.279 -12.354,-4.703C-13.925,-3.916 -14.559,-3.818 -16.535,-3.675C-18.064,-3.565 -19.489,-3.141 -21.08,-3.001C-22.731,-2.855 -24.366,-2.808 -26.044,-2.782C-26.391,-2.398 -26.943,-1.564 -27.086,-1.031C-26.856,-0.79 -26.744,-0.936 -26.58,-0.558C-26.222,0.268 -26.815,0.451 -27.026,1.665C-27.224,2.808 -27.097,4.178 -27.106,5.372C-27.944,5.665 -28.532,6.898 -28.762,8.092C-29.014,9.404 -28.975,10.801 -28.781,12.132C-28.655,13.006 -29.065,12.336 -28.728,14.05C-28.527,15.073 -28.641,15.467 -28.27,15.732C-27.674,16.158 -26.992,16.767 -26.59,17.365C-26.447,17.577 -26.347,17.804 -26.211,18.028C-25.027,19.979 -13.673,20.357 -11.219,20.485C-11.477,17.585 -11.208,15.168 -9.635,12.801C-9.419,12.477 -9.18,12.169 -8.979,11.863L-8.256,11.054C-7.498,10.211 -5.995,9.082 -4.549,8.5C0.562,6.437 5.828,8.288 8.719,12.301C9.552,13.455 10.262,14.984 10.578,16.697C10.958,18.752 10.684,20.375 10.373,22.341L71.609,22.223C71.144,20.124 70.761,18.913 71.271,16.478C71.842,13.756 73.179,11.804 75.082,10.161C75.475,9.821 76.298,9.292 76.763,9.023C78.126,8.233 79.996,7.701 81.862,7.656C84.916,7.583 87.969,8.855 89.974,10.916C92.647,13.667 93.789,17.286 92.729,21.782C94.076,21.84 96.104,21.596 97.438,21.415C99.283,21.167 99.979,20.935 100.699,19.584C101.127,18.782 100.947,18.412 100.854,17.444C100.585,14.636 100.763,15.686 101.1,12.94C101.151,12.526 101.24,10.844 101.309,10.639M52.013,-0.441L33.664,-0.449C33.429,-0.768 31.951,-5.131 31.686,-5.881C31.362,-6.796 31.078,-7.716 30.781,-8.659C30.522,-9.48 30.122,-10.655 29.984,-11.503C33.962,-11.592 40.081,-10.469 43.652,-9.381C46.02,-8.66 48.239,-7.263 50.263,-6.052C50.869,-5.69 53.416,-4.062 53.766,-3.669C53.491,-3.528 53.033,-3.522 52.689,-3.334C51.476,-2.668 51.799,-1.39 52.013,-0.441M28.168,-0.502C27.169,-0.394 25.353,-0.552 24.26,-0.566C18.967,-0.645 9.438,-0.674 4.695,-1.276C2.79,-1.518 1.759,-2.022 0.921,-3.581C0.369,-4.608 0.406,-5.758 0.88,-6.803C1.221,-7.556 4.027,-8.66 4.815,-8.94C8.813,-10.364 14.301,-11.085 18.617,-11.341C20.163,-11.432 25.11,-11.704 26.396,-11.572L28.168,-0.502Z" style="fill:rgb(208,210,211);"/>
                                </g>
                                <g transform="matrix(0.384597,0.263403,0.943215,-0.107403,1533.13,700.797)">
                                    <path d="M19.593,-11.667C16.177,-0.36 14.935,13.271 16.335,25.025C16.423,25.749 17.468,27.482 19.593,28.236C14.614,22.717 18.943,-0.847 21.147,-8.148L19.593,-11.667Z" style="fill:rgb(208,210,211);"/>
                                </g>
                            </g>
                            <g  serif:id="DoorMenuBackground_Hood" transform="matrix(0.27857,0,0,0.999648,167.761,-1.36563)">
                                <path d="M559.057,763.613C559.057,761.426 536.234,759.65 508.123,759.65L100.657,759.65C72.546,759.65 49.723,761.426 49.723,763.613L49.723,801.019C49.723,803.207 72.546,804.983 100.657,804.983L508.123,804.983C536.234,804.983 559.057,803.207 559.057,801.019L559.057,763.613Z" style="fill:rgb(115,118,120);fill-opacity:0;"/>
                            </g>
                        </g>
                        <g  onclick="ChangeBackground(this.id);" transform="matrix(1,0,0,1,144.117,0)">
                            <g transform="matrix(0.900696,0,0,0.251529,-867.349,697.149)">
                                <text x="902.248px" y="392.983px" style="font-family:'Arial-BoldMT', 'Arial', sans-serif;font-weight:700;font-size:12px;fill:rgb(208,210,211);">TRUNK</text>
                            </g>
                            <g  transform="matrix(0.890362,0,0,0.890362,-1213,145.453)">
                                <g transform="matrix(1.01861,0,0,0.284458,1287.54,706.96)">
                                    <path d="M0,16.845C-0.721,17.063 -0.862,16.422 -0.552,16.181C-0.201,15.911 0.277,16.243 0,16.845M82.312,16.886C81.567,16.985 81.546,16.26 81.964,16.12C82.211,16.039 82.427,16.199 82.491,16.38C82.577,16.627 82.429,16.744 82.312,16.886M-2.652,18.359C-2.125,18.094 -1.867,18.926 -2.326,19.085C-2.601,19.181 -2.803,19.018 -2.87,18.86C-3,18.555 -2.816,18.442 -2.652,18.359M1.779,18.32C2.312,18.145 2.527,18.97 2.038,19.095C1.476,19.238 1.324,18.469 1.779,18.32M-0.569,21.266C-1.138,20.382 0.391,20.158 0.035,21.201C-0.255,21.334 -0.191,21.359 -0.569,21.266M79.766,18.331C80.291,18.123 80.515,18.942 80.068,19.087C79.486,19.28 79.276,18.527 79.766,18.331M84.591,19.049C83.833,19.276 83.754,18.62 84.043,18.388C84.223,18.245 84.481,18.282 84.608,18.433C84.873,18.742 84.591,18.963 84.591,19.049M81.934,20.564C82.468,20.298 82.71,21.076 82.319,21.27C82.048,21.404 81.789,21.275 81.719,21.074C81.615,20.779 81.756,20.654 81.934,20.564M-0.569,17.791C-0.017,17.606 0.479,17.986 0.619,18.379C0.826,18.966 0.441,19.516 0.012,19.635C-1.206,19.975 -1.839,18.217 -0.569,17.791M81.828,17.795C83.029,17.406 83.594,19.227 82.444,19.616C81.207,20.035 80.549,18.211 81.828,17.795M3.441,13.41C2.75,14.058 2.024,14.808 1.35,15.507C1.203,15.658 0.882,16.007 0.801,15.481L0.807,12.327C1.755,12.414 2.847,12.977 3.441,13.41M78.392,23.999C79.054,23.276 79.812,22.621 80.49,21.888C81.183,21.141 81.012,22.491 81.012,23.018C81.012,23.711 81.002,24.409 81.013,25.103C80.257,24.994 78.751,24.443 78.392,23.999M-4.011,23.999L-2.121,22.097C-1.831,21.808 -1.832,21.616 -1.388,21.752L-1.388,25.099C-2.107,25.03 -3.648,24.419 -4.011,23.999M-5.593,22.451C-6.048,21.762 -6.56,20.855 -6.677,19.801L-4.082,19.802C-3.958,19.802 -3.766,19.789 -3.651,19.796C-3.315,19.818 -3.101,19.967 -3.398,20.264L-4.357,21.211C-4.768,21.635 -5.213,22.029 -5.593,22.451M85.061,17.373C85.157,17.157 86.001,16.388 86.228,16.158C86.456,15.927 87.22,15.106 87.439,14.981C87.859,15.689 88.384,16.587 88.492,17.616L85.542,17.616C85.128,17.616 85.187,17.695 85.061,17.373M76.748,22.435C76.617,22.095 76.303,21.685 76.115,21.218C75.944,20.791 75.776,20.306 75.718,19.803L78.737,19.799C79.507,19.828 79.003,20.259 78.684,20.574C78.348,20.908 77.046,22.313 76.748,22.435M2.748,17.601C2.663,17.322 2.639,17.334 2.811,17.156L3.738,16.239C4.126,15.853 4.601,15.315 4.996,14.992C5.517,15.544 5.997,16.698 6.096,17.617L2.748,17.601ZM83.197,15.672L83.197,12.323C84.205,12.445 85.171,12.944 85.835,13.395C85.666,13.663 84.861,14.404 84.574,14.687L83.594,15.674C83.408,15.825 83.472,15.74 83.197,15.672M0.809,25.097L0.816,21.741C1.191,21.645 1.027,21.556 1.562,22.095C1.959,22.493 3.267,23.735 3.419,23.999C3.333,24.091 3.306,24.121 3.174,24.204C2.529,24.608 1.559,25.012 0.809,25.097M4.996,22.42C4.754,22.279 3.471,20.941 3.095,20.563C2.548,20.013 2.639,20.229 2.737,19.806L6.095,19.812C6.028,20.5 5.542,21.745 5.089,22.316C5.036,22.383 5.04,22.377 4.996,22.42M78.366,13.391C79.191,12.915 79.904,12.45 81.011,12.323L81.009,15.667C80.518,15.826 80.481,15.534 79.634,14.695C79.326,14.388 78.561,13.692 78.366,13.391M87.384,22.422C87.053,22.171 86.632,21.693 86.319,21.382C86.012,21.076 85.051,20.234 85.066,20.02C85.084,19.794 85.156,19.818 85.349,19.797L88.493,19.806C88.413,20.422 87.833,22.116 87.384,22.422M-6.671,17.617C-6.645,17.13 -6.42,16.537 -6.249,16.125C-6.131,15.839 -5.806,15.156 -5.538,14.969C-4.851,15.954 -2.479,17.495 -3.524,17.619L-6.671,17.617ZM83.218,21.741C83.496,21.633 83.51,21.639 83.686,21.805C84.101,22.198 85.696,23.776 85.815,23.999C85.804,24.012 85.788,24.026 85.78,24.034C85.203,24.544 83.887,25.021 83.197,25.099L83.218,21.741ZM-4.03,13.462C-3.889,13.26 -3.677,13.166 -3.451,13.036C-2.923,12.732 -1.993,12.367 -1.385,12.328L-1.388,15.661L-1.696,15.771L-4.03,13.462ZM75.716,17.62C75.791,16.955 76.257,15.622 76.746,15.075C76.819,14.993 76.777,15.034 76.85,14.975L79.159,17.286C79.041,17.731 79.041,17.624 78.489,17.617L75.716,17.62ZM71.506,19.522C70.926,11.617 78.693,6.053 85.915,8.782C89.66,10.197 92.424,13.823 92.706,17.927C93.129,24.082 88.495,28.89 82.859,29.313C80.728,29.472 78.259,28.897 76.555,27.772C74.91,26.687 73.734,25.611 72.691,23.66C72.066,22.491 71.616,21.026 71.506,19.522M81.331,11.162C83.584,10.904 85.852,11.825 87.033,12.94C87.726,13.597 88.2,14.072 88.748,15.027C89.205,15.823 89.552,16.891 89.656,17.92C90.103,22.33 86.833,25.824 82.962,26.253C78.476,26.751 74.936,23.417 74.549,19.469C74.123,15.11 77.245,11.632 81.331,11.162M10.304,19.522C9.663,27.313 1.331,31.616 -5.212,28.136C-7.577,26.879 -9.276,24.97 -10.217,22.527C-10.76,21.111 -11.014,19.566 -10.89,17.864C-10.483,12.268 -5.571,7.641 0.581,8.115C3.194,8.316 6.176,9.771 7.658,11.644C8.572,12.799 9.073,13.425 9.645,14.935C10.151,16.274 10.435,17.919 10.304,19.522M-7.874,19.154C-8.132,14.802 -4.776,11.376 -0.759,11.129C3.593,10.865 7.038,14.209 7.284,18.232C7.388,19.937 6.793,22.065 5.772,23.302C4.358,25.012 2.565,26.145 0.152,26.287C-2.333,26.435 -4.145,25.418 -5.438,24.312C-5.832,23.974 -5.975,23.71 -6.334,23.309C-7.175,22.368 -7.793,20.523 -7.874,19.154M101.309,10.641L101.309,9.155C101.126,8.675 101.299,7.245 100.476,6.184C98.853,4.091 95.517,3.317 92.859,2.511C91.882,2.213 90.796,2.013 89.791,1.782C81.913,-0.021 74.637,-1.109 66.403,-1.119C63.758,-1.123 63.304,-0.849 61.697,-2.09C60.944,-2.671 56.935,-4.887 55.831,-5.548C55.025,-6.03 54.144,-6.449 53.383,-6.901C51.757,-7.87 47.666,-9.937 45.985,-10.733C37.453,-14.771 21.791,-14.101 12.124,-13.334C10.188,-13.18 10.64,-13.219 9.262,-14.005C8.028,-14.709 7.461,-14.232 6.267,-13.937C6.263,-13.365 6.234,-12.791 6.117,-12.256C6.058,-12.159 5.291,-11.877 5.178,-11.83L2.398,-10.744C-1.59,-9.232 -4.801,-7.99 -8.778,-6.338C-10.031,-5.817 -11.203,-5.277 -12.354,-4.701C-13.925,-3.915 -14.559,-3.816 -16.536,-3.674C-18.064,-3.564 -19.489,-3.139 -21.081,-2.999C-22.731,-2.854 -24.366,-2.806 -26.044,-2.78C-26.391,-2.396 -26.943,-1.563 -27.086,-1.03C-26.856,-0.788 -26.744,-0.934 -26.58,-0.556C-26.222,0.269 -26.816,0.453 -27.026,1.666C-27.224,2.81 -27.097,4.18 -27.106,5.373C-27.944,5.666 -28.532,6.9 -28.762,8.094C-29.014,9.405 -28.975,10.802 -28.781,12.133C-28.655,13.007 -29.066,12.337 -28.728,14.051C-28.527,15.075 -28.641,15.469 -28.27,15.734C-27.674,16.159 -26.992,16.768 -26.59,17.366C-26.447,17.579 -26.347,17.806 -26.211,18.03C-25.027,19.981 -13.674,20.359 -11.219,20.486C-11.477,17.586 -11.209,15.17 -9.635,12.803C-9.419,12.478 -9.181,12.171 -8.979,11.864L-8.256,11.055C-7.498,10.213 -5.995,9.083 -4.55,8.501C0.562,6.438 5.828,8.29 8.719,12.302C9.552,13.457 10.262,14.986 10.578,16.699C10.958,18.753 10.683,20.377 10.373,22.342L71.609,22.225C71.144,20.126 70.761,18.915 71.271,16.48C71.842,13.757 73.179,11.805 75.082,10.163C75.475,9.822 76.298,9.294 76.763,9.025C78.126,8.235 79.996,7.703 81.862,7.657C84.916,7.584 87.969,8.856 89.974,10.918C92.647,13.669 93.789,17.287 92.729,21.784C94.076,21.842 96.104,21.598 97.438,21.416C99.282,21.169 99.979,20.936 100.698,19.586C101.127,18.784 100.947,18.414 100.854,17.445C100.585,14.637 100.762,15.687 101.1,12.942C101.151,12.527 101.24,10.846 101.309,10.641M52.012,-0.439L33.664,-0.448C33.429,-0.766 31.951,-5.129 31.686,-5.879C31.362,-6.795 31.078,-7.715 30.781,-8.658C30.522,-9.479 30.122,-10.654 29.984,-11.502C33.961,-11.591 40.081,-10.467 43.652,-9.38C46.019,-8.659 48.239,-7.261 50.263,-6.05C50.869,-5.688 53.416,-4.061 53.766,-3.668C53.491,-3.527 53.033,-3.521 52.689,-3.332C51.476,-2.666 51.798,-1.389 52.012,-0.439M28.168,-0.5C27.169,-0.392 25.353,-0.55 24.26,-0.565C18.967,-0.644 9.438,-0.673 4.695,-1.274C2.79,-1.516 1.759,-2.021 0.921,-3.579C0.369,-4.607 0.406,-5.756 0.88,-6.802C1.221,-7.554 4.027,-8.659 4.815,-8.939C8.812,-10.362 14.301,-11.084 18.617,-11.339C20.163,-11.43 25.11,-11.703 26.396,-11.57L28.168,-0.5Z" style="fill:rgb(208,210,211);"/>
                                </g>
                                <g transform="matrix(1.01861,0,0,0.284458,1274.05,702.737)">
                                    <path d="M0,11.375L-11.881,2.056L-13.432,2.882L-13.892,3.016L-15.669,3.127L-19.307,7.121L-19.826,6.717L-16.875,1.604L-14.134,1.436L-11.445,0L0.735,10.526L0,11.375Z" style="fill:rgb(208,210,211);"/>
                                </g>
                            </g>
                            <g  transform="matrix(0.27857,0,0,0.999648,-120.474,-1.36563)">
                                <path d="M559.057,763.613C559.057,761.426 536.234,759.65 508.123,759.65L100.657,759.65C72.546,759.65 49.723,761.426 49.723,763.613L49.723,801.019C49.723,803.207 72.546,804.983 100.657,804.983L508.123,804.983C536.234,804.983 559.057,803.207 559.057,801.019L559.057,763.613Z" style="fill:rgb(115,118,120);fill-opacity:0;"/>
                            </g>
                        </g>
                        <g  transform="matrix(1,0,0,1,-144.117,0)">
                            <g transform="matrix(0.900696,0,0,0.251529,-721.311,697.149)">
                                <text x="902.248px" y="392.983px" style="font-family:'Arial-BoldMT', 'Arial', sans-serif;font-weight:700;font-size:12px;fill:rgb(208,210,211);">RIGHT</text>
                            </g>
                            <g  transform="matrix(1,0,0,1,-1067.7,67.8641)">
                                <g transform="matrix(1.01861,0,0,0.284458,1199.67,712.081)">
                                    <path d="M0,-20.728C-1.505,-20.853 -2.442,-21.81 -3.791,-22.124C-3.791,-20.083 -3.591,-18.806 -3.591,-16.738C-3.591,-14.164 -3.43,-3.714 -3.706,-1.891C-4.005,0.084 -3.677,2.776 -3.935,4.661L-4.189,11.189C-4.259,12.453 -4.126,13.461 -4.019,14.411C-3.794,16.416 -3.938,23.292 -4.464,25.078C-4.89,26.524 -5.246,26.453 -5.393,28.339C-5.645,31.567 -5.527,32.067 -8.459,33.851C-13.48,36.905 -32.8,36.905 -37.821,33.851C-39.72,32.697 -40.433,32.156 -40.644,30.49L-41.129,26.786C-41.693,25.046 -42.291,24.753 -42.291,21.365L-42.263,14.411C-41.828,10.543 -42.299,11.121 -42.292,7.999L-42.575,-1.891C-43.116,-5.469 -42.49,-17.644 -42.49,-22.124C-43.839,-21.81 -44.776,-20.853 -46.28,-20.728C-46.703,-22.54 -46.47,-22.45 -44.838,-24.074C-44.035,-24.874 -43.389,-25.113 -42.49,-25.715C-42.49,-29.787 -42.156,-30.051 -42.509,-33.676C-42.959,-38.297 -42.483,-40.031 -42.492,-43.869C-42.496,-45.749 -41.813,-46.243 -40.632,-48.793C-38.974,-52.374 -36.971,-54.142 -33.512,-55.836C-32.668,-56.249 -32.752,-56.186 -32.078,-56.796C-31.244,-57.553 -30.07,-57.235 -27.928,-57.235C-27.141,-57.235 -26.301,-57.204 -25.522,-57.223C-23.885,-57.264 -25.065,-57.633 -22.741,-57.633C-22.194,-57.633 -22.121,-57.233 -18.552,-57.235C-17.034,-57.235 -15.012,-57.476 -14.302,-56.896C-13.648,-56.361 -13.974,-56.433 -13.038,-55.966C-7.851,-53.382 -7.407,-52.229 -5.059,-47.388C-4.415,-46.059 -3.786,-46.018 -3.786,-44.073C-3.783,-40.137 -3.328,-38.24 -3.771,-33.676C-4.125,-30.051 -3.791,-29.787 -3.791,-25.715C-2.112,-24.591 0.902,-23.049 0,-20.728M-8.777,1.815C-7.911,1.743 -6.847,1.009 -6.442,0.559C-5.745,-0.213 -6.075,-1.301 -5.973,-2.564C-5.402,-9.699 -5.386,-16.557 -5.386,-23.72C-6.166,-23.656 -6.171,-23.514 -6.38,-22.918C-6.698,-22.016 -7.858,-12.844 -7.962,-11.933C-8.475,-7.479 -8.777,-3.159 -8.777,1.815M-8.777,4.009C-8.777,6.267 -10.368,20.662 -9.987,21.967C-9.761,22.751 -9.356,23.386 -9.176,24.158L-8.777,24.158C-8.777,22.347 -8.402,20.658 -8.167,18.982L-6.383,3.411C-7.394,3.495 -7.767,3.924 -8.777,4.009M-11.171,-17.537L-15.01,-18.286C-18.389,-18.981 -23.449,-18.733 -27.13,-18.733C-34.62,-18.733 -35.93,-15.073 -36.957,-20.278L-38.141,-27.874C-38.333,-29.32 -38.374,-30.098 -37.466,-31.064C-35.679,-32.964 -29.713,-33.676 -27.12,-33.882C-26.396,-33.941 -25.727,-33.848 -24.99,-33.949C-23.674,-34.127 -20.112,-33.99 -18.98,-33.865C-15.21,-33.448 -15.439,-33.761 -11.592,-32.475C-8.171,-31.331 -7.825,-30.559 -8.178,-27.511L-9.39,-19.944C-9.626,-18.765 -9.703,-17.537 -11.171,-17.537M-5.585,-46.861C-6.664,-51.49 -11.316,-53.75 -11.97,-54.641C-12.392,-54.338 -12.25,-54.545 -11.254,-53.761C-10.82,-53.42 -10.725,-53.273 -10.288,-52.93L-8.325,-51.304C-7.192,-50.082 -6.633,-48.609 -5.988,-47.456C-5.966,-47.417 -5.939,-47.365 -5.916,-47.328L-5.585,-46.861ZM-21.544,30.541C-16.866,30.541 -15.775,29.896 -12.567,27.749C-12.396,29.817 -9.38,32.708 -16.265,33.825C-17.464,34.02 -18.669,33.832 -19.865,34.016L-30.016,33.825C-36.9,32.708 -33.885,29.817 -33.713,27.749C-28.973,30.923 -27.866,30.541 -21.544,30.541M-20.147,27.349C-22.917,27.349 -26.841,27.583 -29.287,26.912C-30.056,26.702 -31.396,26.172 -32.316,26.153C-31.057,28.033 -27.062,27.631 -25.763,27.777C-23.927,27.982 -19.64,27.895 -17.98,27.721C-16.434,27.56 -14.677,27.215 -13.964,26.153C-15.515,26.187 -17.104,27.349 -20.147,27.349M-33.115,-9.357L-33.115,-2.973C-33.115,-1.821 -32.315,-1.126 -31.298,-0.999C-28.115,-0.602 -18.561,-0.7 -15.167,-0.985C-14.012,-1.082 -13.166,-1.752 -13.166,-2.973L-13.166,-9.357C-13.166,-11.401 -15.306,-11.454 -17.155,-11.552C-19.432,-11.673 -30.002,-11.798 -31.792,-11.226C-32.562,-10.98 -33.115,-10.267 -33.115,-9.357M-37.104,24.158C-36.944,23.465 -36.542,22.746 -36.342,22.122C-35.845,20.579 -37.504,7.016 -37.504,4.009C-38.513,3.924 -38.887,3.495 -39.898,3.411C-39.898,6.609 -37.504,21.756 -37.504,24.158L-37.104,24.158ZM-37.504,1.815C-37.504,-3.108 -37.808,-7.368 -38.301,-11.751C-38.542,-13.891 -38.833,-15.958 -39.134,-18.1L-39.854,-22.766C-40.056,-23.458 -40.092,-23.654 -40.895,-23.72L-40.895,-16.539C-40.895,-13.648 -40.624,-5.439 -40.325,-2.745C-40.192,-1.535 -40.526,-0.343 -39.931,0.452C-39.459,1.082 -38.305,1.711 -37.504,1.815M-34.113,-54.441C-34.43,-54.826 -34.069,-54.711 -35.163,-53.897C-35.565,-53.598 -35.782,-53.441 -36.195,-53.133L-38.184,-51.332C-38.213,-51.303 -38.255,-51.26 -38.283,-51.231L-38.933,-50.485C-39.202,-50.14 -39.409,-49.812 -39.633,-49.39C-40.001,-48.7 -40.519,-47.615 -40.695,-46.861C-39.665,-48.045 -39.628,-50.748 -34.113,-54.441" style="fill:rgb(208,210,211);"/>
                                </g>
                                <g transform="matrix(-0.176849,-0.280138,-1.00314,0.0493871,1195.44,710.717)">
                                    <path d="M14.783,-2.074L18.878,-2.074C11.192,-6 -1.446,-13.179 -5.049,-11.488L-5.256,-9.114L14.783,-2.074Z" style="fill:rgb(208,210,211);"/>
                                </g>
                            </g>
                            <g  transform="matrix(0.27857,0,0,0.999648,23.6436,-1.36563)">
                                <path d="M559.057,763.613C559.057,761.426 536.234,759.65 508.123,759.65L100.657,759.65C72.546,759.65 49.723,761.426 49.723,763.613L49.723,801.019C49.723,803.207 72.546,804.983 100.657,804.983L508.123,804.983C536.234,804.983 559.057,803.207 559.057,801.019L559.057,763.613Z" style="fill:rgb(115,118,120);fill-opacity:0;"/>
                            </g>
                        </g>
                        <g >
                            <g transform="matrix(0.900696,0,0,0.251529,-1006.26,697.149)">
                                <text x="902.248px" y="392.983px" style="font-family:'Arial-BoldMT', 'Arial', sans-serif;font-weight:700;font-size:12px;fill:rgb(208,210,211);">LEFT</text>
                            </g>
                            <g  transform="matrix(1,0,0,1,-1261.42,67.8641)">
                                <g transform="matrix(1.01861,0,0,0.284458,1059.1,712.081)">
                                    <path d="M0,-20.728C1.505,-20.853 2.441,-21.81 3.791,-22.124C3.791,-20.083 3.59,-18.806 3.59,-16.738C3.59,-14.164 3.43,-3.714 3.705,-1.891C4.005,0.084 3.677,2.776 3.934,4.661L4.19,11.189C4.259,12.453 4.126,13.461 4.019,14.411C3.794,16.416 3.938,23.292 4.465,25.078C4.89,26.524 5.246,26.453 5.393,28.339C5.645,31.567 5.526,32.067 8.459,33.851C13.48,36.905 32.801,36.905 37.821,33.851C39.719,32.697 40.433,32.156 40.645,30.49L41.13,26.786C41.693,25.046 42.291,24.753 42.291,21.365L42.262,14.411C41.828,10.543 42.299,11.121 42.292,7.999L42.576,-1.891C43.116,-5.469 42.491,-17.644 42.491,-22.124C43.839,-21.81 44.776,-20.853 46.281,-20.728C46.704,-22.54 46.471,-22.45 44.838,-24.074C44.035,-24.874 43.389,-25.113 42.491,-25.715C42.491,-29.787 42.156,-30.051 42.509,-33.676C42.959,-38.297 42.483,-40.031 42.491,-43.869C42.497,-45.749 41.812,-46.243 40.633,-48.793C38.974,-52.374 36.971,-54.142 33.512,-55.836C32.668,-56.249 32.752,-56.186 32.078,-56.796C31.244,-57.553 30.07,-57.235 27.929,-57.235C27.141,-57.235 26.301,-57.204 25.522,-57.223C23.886,-57.264 25.065,-57.633 22.741,-57.633C22.194,-57.633 22.121,-57.233 18.552,-57.235C17.034,-57.235 15.012,-57.476 14.302,-56.896C13.647,-56.361 13.974,-56.433 13.039,-55.966C7.851,-53.382 7.407,-52.229 5.059,-47.388C4.415,-46.059 3.786,-46.018 3.786,-44.073C3.784,-40.137 3.327,-38.24 3.771,-33.676C4.125,-30.051 3.791,-29.787 3.791,-25.715C2.112,-24.591 -0.902,-23.049 0,-20.728M8.777,1.815C7.912,1.743 6.847,1.009 6.442,0.559C5.745,-0.213 6.075,-1.301 5.973,-2.564C5.403,-9.699 5.386,-16.557 5.386,-23.72C6.166,-23.656 6.171,-23.514 6.38,-22.918C6.698,-22.016 7.858,-12.844 7.962,-11.933C8.475,-7.479 8.777,-3.159 8.777,1.815M8.777,4.009C8.777,6.267 10.368,20.662 9.988,21.967C9.761,22.751 9.355,23.386 9.176,24.158L8.777,24.158C8.777,22.347 8.403,20.658 8.167,18.982L6.383,3.411C7.394,3.495 7.767,3.924 8.777,4.009M11.171,-17.537L15.01,-18.286C18.389,-18.981 23.449,-18.733 27.13,-18.733C34.619,-18.733 35.931,-15.073 36.957,-20.278L38.141,-27.874C38.333,-29.32 38.375,-30.098 37.466,-31.064C35.679,-32.964 29.713,-33.676 27.119,-33.882C26.396,-33.941 25.727,-33.848 24.99,-33.949C23.674,-34.127 20.112,-33.99 18.98,-33.865C15.21,-33.448 15.44,-33.761 11.593,-32.475C8.171,-31.331 7.825,-30.559 8.178,-27.511L9.39,-19.944C9.626,-18.765 9.703,-17.537 11.171,-17.537M5.585,-46.861C6.664,-51.49 11.316,-53.75 11.969,-54.641C12.392,-54.338 12.25,-54.545 11.254,-53.761C10.82,-53.42 10.725,-53.273 10.288,-52.93L8.325,-51.304C7.192,-50.082 6.633,-48.609 5.988,-47.456C5.966,-47.417 5.939,-47.365 5.917,-47.328L5.585,-46.861ZM21.545,30.541C16.866,30.541 15.775,29.896 12.567,27.749C12.396,29.817 9.38,32.708 16.265,33.825C17.464,34.02 18.669,33.832 19.865,34.016L30.016,33.825C36.9,32.708 33.885,29.817 33.713,27.749C28.973,30.923 27.866,30.541 21.545,30.541M20.147,27.349C22.917,27.349 26.84,27.583 29.287,26.912C30.056,26.702 31.396,26.172 32.316,26.153C31.057,28.033 27.062,27.631 25.762,27.777C23.927,27.982 19.64,27.895 17.98,27.721C16.434,27.56 14.676,27.215 13.964,26.153C15.515,26.187 17.104,27.349 20.147,27.349M33.115,-9.357L33.115,-2.973C33.115,-1.821 32.315,-1.126 31.298,-0.999C28.115,-0.602 18.562,-0.7 15.167,-0.985C14.012,-1.082 13.166,-1.752 13.166,-2.973L13.166,-9.357C13.166,-11.401 15.306,-11.454 17.155,-11.552C19.432,-11.673 30.002,-11.798 31.792,-11.226C32.562,-10.98 33.115,-10.267 33.115,-9.357M37.105,24.158C36.944,23.465 36.542,22.746 36.341,22.122C35.846,20.579 37.504,7.016 37.504,4.009C38.514,3.924 38.887,3.495 39.897,3.411C39.897,6.609 37.504,21.756 37.504,24.158L37.105,24.158ZM37.504,1.815C37.504,-3.108 37.809,-7.368 38.301,-11.751C38.542,-13.891 38.833,-15.958 39.133,-18.1L39.854,-22.766C40.056,-23.458 40.093,-23.654 40.895,-23.72L40.895,-16.539C40.895,-13.648 40.625,-5.439 40.326,-2.745C40.192,-1.535 40.526,-0.343 39.931,0.452C39.46,1.082 38.305,1.711 37.504,1.815M34.113,-54.441C34.431,-54.826 34.069,-54.711 35.163,-53.897C35.565,-53.598 35.782,-53.441 36.195,-53.133L38.184,-51.332C38.213,-51.303 38.255,-51.26 38.284,-51.231L38.933,-50.485C39.202,-50.14 39.409,-49.812 39.633,-49.39C40.002,-48.7 40.52,-47.615 40.695,-46.861C39.665,-48.045 39.628,-50.748 34.113,-54.441" style="fill:rgb(208,210,211);"/>
                                </g>
                                <g transform="matrix(0.176849,-0.280138,-1.00314,-0.0493871,1051.11,706.349)">
                                    <path d="M1.741,-12.405L5.836,-12.405C-1.85,-8.478 -14.488,-1.3 -18.091,-2.99L-18.298,-5.364L1.741,-12.405Z" style="fill:rgb(208,210,211);"/>
                                </g>
                            </g>
                            <g transform="matrix(0.27857,0,0,0.999648,-264.591,-1.32706)">
                                <path d="M559.057,763.613C559.057,761.426 536.234,759.65 508.123,759.65L100.657,759.65C72.546,759.65 49.723,761.426 49.723,763.613L49.723,801.019C49.723,803.207 72.546,804.983 100.657,804.983L508.123,804.983C536.234,804.983 559.057,803.207 559.057,801.019L559.057,763.613Z" style="fill:rgb(115,118,120);fill-opacity:0;"/>
                            </g>
                        </g>
                    </g>
                </g>
            </svg>