<svg xmlns="http://www.w3.org/2000/svg" width="15" height="14" viewBox="0 0 15 14">
  <path id="Icon_awesome-edit" data-name="Icon awesome-edit" d="M10.484,2.28l2.349,2.467a.277.277,0,0,1,0,.377L7.146,11.1l-2.417.282a.52.52,0,0,1-.56-.588l.268-2.538L10.125,2.28A.246.246,0,0,1,10.484,2.28ZM14.7,1.653,13.432.319a.984.984,0,0,0-1.437,0l-.922.968a.277.277,0,0,0,0,.377l2.349,2.467a.246.246,0,0,0,.359,0l.922-.968a1.108,1.108,0,0,0,0-1.51ZM10,9.473v2.784H1.667V3.5H7.651a.313.313,0,0,0,.221-.1L8.914,2.315a.33.33,0,0,0-.221-.561H1.25A1.283,1.283,0,0,0,0,3.067v9.627a1.283,1.283,0,0,0,1.25,1.313h9.167a1.283,1.283,0,0,0,1.25-1.313V8.379a.311.311,0,0,0-.534-.232L10.091,9.24A.345.345,0,0,0,10,9.473Z" transform="translate(0 -0.007)" fill="#8b8b8b"/>
</svg>
