<svg id="Icon_awesome-edit" data-name="Icon awesome-edit" xmlns="http://www.w3.org/2000/svg" width="14.5" height="12.886" fill="green" viewBox="0 0 14.5 12.886">
  <path id="Icon_awesome-edit-2" data-name="Icon awesome-edit" d="M10.135,2.1,12.406,4.37a.246.246,0,0,1,0,.347l-5.5,5.5-2.336.259a.49.49,0,0,1-.541-.541L4.29,7.6l5.5-5.5A.246.246,0,0,1,10.135,2.1Zm4.078-.576L12.985.294a.985.985,0,0,0-1.39,0l-.891.891a.246.246,0,0,0,0,.347L12.974,3.8a.246.246,0,0,0,.347,0l.891-.891a.985.985,0,0,0,0-1.39ZM9.667,8.72v2.563H1.611V3.227H7.4a.31.31,0,0,0,.214-.088L8.617,2.132A.3.3,0,0,0,8.4,1.616H1.208A1.209,1.209,0,0,0,0,2.824v8.861a1.209,1.209,0,0,0,1.208,1.208h8.861a1.209,1.209,0,0,0,1.208-1.208V7.713a.3.3,0,0,0-.516-.214L9.755,8.506A.31.31,0,0,0,9.667,8.72Z" transform="translate(0 -0.007)" fill="#0024ff"/>
</svg>
