<svg xmlns="http://www.w3.org/2000/svg" xmlns:xlink="http://www.w3.org/1999/xlink" width="29" height="29" viewBox="0 0 50 50">
  <defs>
    <linearGradient id="linear-gradient" x1="0.5" x2="0.5" y2="1" gradientUnits="objectBoundingBox">
      <stop offset="0"/>
      <stop offset="1" stop-color="#545454"/>
    </linearGradient>
    <clipPath id="clip-Artboard_3">
      <rect width="50" height="50"/>
    </clipPath>
  </defs>
  <g id="Artboard_3" data-name="Artboard – 3" clip-path="url(#clip-Artboard_3)">
    <rect width="50" height="50" fill="rgba(255,255,255,0)"/>
    <path id="Icon_awesome-facebook" data-name="Icon awesome-facebook" d="M33.947,17.356a16.692,16.692,0,1,0-19.3,16.591V22.211h-4.24V17.356h4.24v-3.7c0-4.209,2.49-6.533,6.3-6.533a25.538,25.538,0,0,1,3.737.328v4.131H22.583a2.42,2.42,0,0,0-2.72,2.623v3.152h4.629l-.74,4.855H19.863V33.947A16.769,16.769,0,0,0,33.947,17.356Z" transform="translate(7.745 7.745)" fill="url(#linear-gradient)"/>
  </g>
</svg>
