<svg xmlns="http://www.w3.org/2000/svg" width="27.37" height="25.572" viewBox="0 0 27.37 25.572">
  <g id="Group_30" data-name="Group 30" transform="translate(-885.066 -116.769)">
    <path id="Subtraction_1" data-name="Subtraction 1" d="M0,22.672V2.519A2.522,2.522,0,0,1,2.519,0H20.152a2.522,2.522,0,0,1,2.52,2.519V6.3H10.017A1.922,1.922,0,0,0,8.1,8.218v9.416H5.038L0,22.671Z" transform="translate(886.066 117.769)" fill="none" stroke="#0024ff" stroke-linecap="round" stroke-linejoin="round" stroke-width="2"/>
    <path id="Icon_feather-message-square" data-name="Icon feather-message-square" d="M21.773,16.015a1.919,1.919,0,0,1-1.919,1.919H8.338L4.5,21.773V6.419A1.919,1.919,0,0,1,6.419,4.5H19.854a1.919,1.919,0,0,1,1.919,1.919Z" transform="translate(889.664 119.567)" fill="none" stroke="#0024ff" stroke-linecap="round" stroke-linejoin="round" stroke-width="2"/>
  </g>
</svg>
