<svg width="100%" height="100%" viewBox="0 0 78 332" version="1.1" xmlns="http://www.w3.org/2000/svg" xmlns:xlink="http://www.w3.org/1999/xlink" xml:space="preserve" xmlns:serif="http://www.serif.com/" style="fill-rule:evenodd;clip-rule:evenodd;stroke-linecap:round;stroke-linejoin:round;stroke-miterlimit:1.5;">
                <g transform="matrix(1,0,0,1,-435.692,-256.457)">
                    <g transform="matrix(1,0,0,1,2266.52,-199.141)">
                        <g transform="matrix(0.989744,0,0,0.798875,-1866.55,206.218)">
                            <path d="M114.223,321.83C114.223,316.496 110.728,312.166 106.423,312.166L44.023,312.166C39.719,312.166 36.223,316.496 36.223,321.83L36.223,717.169C36.223,722.503 39.719,726.833 44.023,726.833L106.423,726.833C110.728,726.833 114.223,722.503 114.223,717.169L114.223,321.83Z" style="fill:rgb(117,121,125);fill-opacity:0.5;"/>
                        </g>
                    </g>
                    <g transform="matrix(1,0,0,1,2266.52,-199.141)">
                        <g >
                            <g  transform="matrix(0.152106,0,0,1.94727,-1838.39,-1023.64)">
                                <path d="M559.057,763.628C559.057,761.432 536.234,759.65 508.123,759.65L100.657,759.65C72.546,759.65 49.723,761.432 49.723,763.628L49.723,801.004C49.723,803.2 72.546,804.983 100.657,804.983L508.123,804.983C536.234,804.983 559.057,803.2 559.057,801.004L559.057,763.628Z" style="fill:rgb(115,118,120);fill-opacity:0.5;"/>
                            </g>
                            <g  transform="matrix(0.150797,0,0,1.85903,-1837.99,-866.505)">
                                <path d="M559.057,763.781C559.057,761.501 536.234,759.65 508.123,759.65L100.657,759.65C72.546,759.65 49.723,761.501 49.723,763.781L49.723,800.851C49.723,803.132 72.546,804.983 100.657,804.983L508.123,804.983C536.234,804.983 559.057,803.132 559.057,800.851L559.057,763.781Z" style="fill:rgb(115,118,120);fill-opacity:0.5;"/>
                            </g>
                            <g transform="matrix(0.150797,0,0,1.55021,-1837.99,-545.797)">
                                <path d="M559.057,764.183C559.057,761.681 538.175,759.65 512.453,759.65L96.327,759.65C70.606,759.65 49.723,761.681 49.723,764.183L49.723,800.45C49.723,802.952 70.606,804.983 96.327,804.983L512.453,804.983C538.175,804.983 559.057,802.952 559.057,800.45L559.057,764.183Z" style="fill:rgb(115,118,120);fill-opacity:0.5;"/>
                            </g>
                            <g  transform="matrix(0.151206,0,0,1.82962,-1838.06,-685.941)">
                                <path d="M559.057,763.859C559.057,761.536 536.234,759.65 508.123,759.65L100.657,759.65C72.546,759.65 49.723,761.536 49.723,763.859L49.723,800.774C49.723,803.097 72.546,804.983 100.657,804.983L508.123,804.983C536.234,804.983 559.057,803.097 559.057,800.774L559.057,763.859Z" style="fill:rgb(115,118,120);fill-opacity:0.5;"/>
                            </g>
                        </g>
                    </g>
                    <g transform="matrix(1,0,0,1,2266.52,-199.141)">
                        <g  transform="matrix(1,0,0,1,-1867.02,60.6082)">
                            <g  transform="matrix(0.891172,0,0,0.891172,-6.31413,54.3353)">
                                <g transform="matrix(1.12212,0,0,1.12212,-74.6079,124.553)">
                                    <g transform="matrix(1,0,0,1,-329.487,-42.467)">
                                        <path d="M480.214,576.75L457.589,576.75C456.23,576.75 454.927,576.21 453.965,575.249C453.004,574.288 452.464,572.985 452.464,571.625C452.464,562.822 452.464,544.928 452.464,536.125C452.464,534.766 453.004,533.463 453.965,532.501C454.927,531.54 456.23,531 457.589,531C464.811,531 477.992,531 485.992,531C490.081,531 493.787,533.406 495.451,537.14C498.179,543.259 501.964,551.75 501.964,551.75L497.214,563.25C497.214,563.25 482.464,562 480.214,576.75Z" style="fill:none;stroke:rgb(211,211,211);stroke-width:3px;"/>
                                    </g>
                                    <g transform="matrix(0.933333,0,0,0.883117,-297.556,22.5362)">
                                        <path d="M456.464,556.015L456.464,534.75L489.964,534.75L496.643,551.75L495.036,556.265L456.464,556.015Z" style="fill:none;stroke:rgb(211,211,211);stroke-width:3.3px;"/>
                                    </g>
                                    <g transform="matrix(1,0,0,1,-403.737,-59.467)">
                                        <path d="M541.714,558.75L537.214,564" style="fill:none;stroke:rgb(211,211,211);stroke-width:3px;"/>
                                    </g>
                                    <g transform="matrix(1,0,0,1,-403.737,-59.467)">
                                        <path d="M547.714,559L539.214,568.75" style="fill:none;stroke:rgb(211,211,211);stroke-width:3px;"/>
                                    </g>
                                    <g transform="matrix(1,0,0,1,-403.737,-59.467)">
                                        <path d="M532.464,584.25L550.214,584.25" style="fill:none;stroke:rgb(211,211,211);stroke-width:3px;"/>
                                    </g>
                                    <g transform="matrix(1,0,0,1,-403.737,-59.467)">
                                        <path d="M554.214,577.5L561.214,577.5" style="fill:none;stroke:rgb(211,211,211);stroke-width:3px;"/>
                                    </g>
                                </g>
                                <g transform="matrix(1.12212,0,0,1.12212,-443.957,96.7239)">
                                    <text x="455.087px" y="576.088px" style="font-family:'Arial-BoldMT', 'Arial', sans-serif;font-weight:700;font-size:10.808px;fill:rgb(208,210,211);">DOORS</text>
                                </g>
                                <g  serif:id="DoorBackground" transform="matrix(0.16967,0,0,2.05305,39.5837,-898.686)">
                                    <path d="M559.057,763.859C559.057,761.536 536.234,759.65 508.123,759.65L100.657,759.65C72.546,759.65 49.723,761.536 49.723,763.859L49.723,800.774C49.723,803.097 72.546,804.983 100.657,804.983L508.123,804.983C536.234,804.983 559.057,803.097 559.057,800.774L559.057,763.859Z" style="fill:rgb(115,118,120);fill-opacity:0;"/>
                                </g>
                            </g>
                            <g  transform="matrix(0.663701,0,0,0.663701,17.3364,353.312)">
                                <g transform="matrix(0.985045,0,0,0.944651,112.208,348.516)">
                                    <path d="M0,50.914L0,-0.035C0,-4.398 -5.949,-2.945 -7.448,-2.928C-20.324,-2.776 -39.443,1.943 -48.207,10.785C-50.077,12.674 -51.827,14.365 -53.093,16.875C-56.006,22.648 -56.461,28.013 -53.165,33.868C-52.404,35.219 -51.894,35.904 -51.009,37.097C-45.768,44.164 -35.045,48.59 -26.791,50.987C-21.617,52.489 -13.219,53.806 -7.657,53.807C-6.052,53.807 0,55.312 0,50.914M-49.085,26.475C-49.085,23.398 -49.14,22.552 -47.497,19.571C-46.737,18.193 -46.195,17.818 -45.446,16.858C-44.233,15.307 -44.325,15.727 -43.027,14.514L-39.287,11.834C-38.509,11.371 -37.937,11.109 -37.161,10.646C-31.363,7.181 -23.827,5.763 -17.604,4.313L-17.604,46.564L-22.907,45.448C-29.269,43.847 -37.691,40.943 -42.811,36.562C-44.571,35.056 -46.229,33.499 -47.422,31.438C-48.081,30.299 -49.085,28.217 -49.085,26.475M-13.255,3.691C-10.989,3.691 -9.088,3.278 -6.213,3.278L-6.213,47.6C-9.085,47.6 -10.951,47.186 -13.255,47.186L-13.255,3.691Z" style="fill:rgb(208,210,211);"/>
                                </g>
                                <g transform="matrix(1.39034,0,0,1.39034,-700.432,-255.044)">
                                    <g transform="matrix(10.8084,0,0,10.8084,548.087,487.088)">
                                        <path d="M0.077,0L0.077,-0.71L0.221,-0.71L0.221,-0.121L0.581,-0.121L0.581,0L0.077,0Z" style="fill:rgb(208,210,211);fill-rule:nonzero;"/>
                                    </g>
                                    <g transform="matrix(10.8084,0,0,10.8084,554.69,487.088)">
                                        <rect x="0.068" y="-0.716" width="0.145" height="0.716" style="fill:rgb(208,210,211);fill-rule:nonzero;"/>
                                    </g>
                                    <g transform="matrix(10.8084,0,0,10.8084,557.692,487.088)">
                                        <path d="M0.406,-0.263L0.406,-0.384L0.717,-0.384L0.717,-0.099C0.687,-0.069 0.643,-0.044 0.586,-0.021C0.528,0.001 0.47,0.012 0.411,0.012C0.336,0.012 0.271,-0.003 0.215,-0.035C0.16,-0.066 0.118,-0.111 0.09,-0.17C0.062,-0.228 0.048,-0.292 0.048,-0.36C0.048,-0.435 0.063,-0.501 0.095,-0.559C0.126,-0.617 0.172,-0.661 0.232,-0.692C0.278,-0.716 0.335,-0.728 0.403,-0.728C0.492,-0.728 0.562,-0.709 0.612,-0.672C0.662,-0.635 0.694,-0.583 0.708,-0.518L0.564,-0.491C0.554,-0.526 0.535,-0.554 0.508,-0.574C0.48,-0.594 0.445,-0.604 0.403,-0.604C0.34,-0.604 0.29,-0.584 0.253,-0.544C0.215,-0.504 0.197,-0.445 0.197,-0.366C0.197,-0.281 0.216,-0.218 0.253,-0.175C0.291,-0.133 0.341,-0.111 0.402,-0.111C0.432,-0.111 0.462,-0.117 0.493,-0.129C0.523,-0.141 0.549,-0.155 0.571,-0.172L0.571,-0.263L0.406,-0.263Z" style="fill:rgb(208,210,211);fill-rule:nonzero;"/>
                                    </g>
                                    <g transform="matrix(10.8084,0,0,10.8084,566.1,487.088)">
                                        <path d="M0.073,0L0.073,-0.716L0.218,-0.716L0.218,-0.434L0.501,-0.434L0.501,-0.716L0.646,-0.716L0.646,0L0.501,0L0.501,-0.313L0.218,-0.313L0.218,0L0.073,0Z" style="fill:rgb(208,210,211);fill-rule:nonzero;"/>
                                    </g>
                                    <g transform="matrix(10.8084,0,0,10.8084,573.905,487.088)">
                                        <path d="M0.234,0L0.234,-0.595L0.021,-0.595L0.021,-0.716L0.59,-0.716L0.59,-0.595L0.378,-0.595L0.378,0L0.234,0Z" style="fill:rgb(208,210,211);fill-rule:nonzero;"/>
                                    </g>
                                    <g transform="matrix(10.8084,0,0,10.8084,580.507,487.088)">
                                        <path d="M0.036,-0.233L0.177,-0.247C0.185,-0.199 0.202,-0.165 0.228,-0.143C0.254,-0.12 0.289,-0.109 0.333,-0.109C0.38,-0.109 0.415,-0.119 0.438,-0.139C0.462,-0.159 0.474,-0.182 0.474,-0.208C0.474,-0.225 0.469,-0.239 0.459,-0.251C0.449,-0.263 0.431,-0.273 0.407,-0.282C0.39,-0.288 0.351,-0.299 0.291,-0.313C0.214,-0.333 0.159,-0.356 0.128,-0.384C0.084,-0.424 0.062,-0.472 0.062,-0.528C0.062,-0.565 0.072,-0.599 0.093,-0.631C0.114,-0.662 0.143,-0.687 0.182,-0.703C0.221,-0.72 0.268,-0.728 0.323,-0.728C0.413,-0.728 0.481,-0.708 0.526,-0.669C0.572,-0.63 0.595,-0.577 0.598,-0.511L0.453,-0.505C0.447,-0.542 0.434,-0.568 0.413,-0.584C0.393,-0.6 0.362,-0.608 0.322,-0.608C0.28,-0.608 0.247,-0.6 0.223,-0.583C0.208,-0.571 0.2,-0.557 0.2,-0.538C0.2,-0.521 0.207,-0.507 0.222,-0.495C0.24,-0.479 0.284,-0.463 0.354,-0.447C0.425,-0.43 0.477,-0.413 0.51,-0.395C0.544,-0.378 0.571,-0.353 0.59,-0.323C0.609,-0.292 0.618,-0.254 0.618,-0.208C0.618,-0.167 0.607,-0.129 0.584,-0.093C0.561,-0.057 0.529,-0.031 0.487,-0.013C0.446,0.004 0.394,0.013 0.332,0.013C0.241,0.013 0.172,-0.008 0.123,-0.05C0.075,-0.092 0.046,-0.153 0.036,-0.233Z" style="fill:rgb(208,210,211);fill-rule:nonzero;"/>
                                    </g>
                                </g>
                                <g  serif:id="LightSwitchesBackground" transform="matrix(0.227206,0,0,2.33571,17.6094,-1446.01)">
                                    <path d="M559.057,764.183C559.057,761.681 538.175,759.65 512.453,759.65L96.327,759.65C70.606,759.65 49.723,761.681 49.723,764.183L49.723,800.45C49.723,802.952 70.606,804.983 96.327,804.983L512.453,804.983C538.175,804.983 559.057,802.952 559.057,800.45L559.057,764.183Z" style="fill:rgb(115,118,120);fill-opacity:0;"/>
                                </g>
                            </g>
                            <g  transform="matrix(1.36854,0,0,1.36854,-92.0645,96.5646)">
                                <g transform="matrix(0.313732,0,0,0.313732,741.842,124.339)">
                                    <g transform="matrix(1.1789,0,0,1.17408,-2326.36,120.828)">
                                        <path d="M333.463,402.963C333.463,402.963 341.088,415.347 341.088,419.555C341.088,423.764 337.672,427.18 333.463,427.18C329.255,427.18 325.838,423.764 325.838,419.555C325.838,415.347 333.463,402.963 333.463,402.963Z" style="fill:rgb(208,210,211);"/>
                                    </g>
                                    <g transform="matrix(1,0,0,0.585002,-2266.52,385.069)">
                                        <rect x="239.481" y="445.776" width="101.714" height="15.714" style="fill:rgb(208,210,211);"/>
                                    </g>
                                    <g transform="matrix(1,0,0,1,-2266.52,199.141)">
                                        <path d="M263.538,340.78L268.538,333.58L334.138,378.38L296.538,435.18L239.738,396.78L273.338,346.98L263.538,340.78ZM250.91,394.204L280.338,351.633L323.338,380.776L314.053,394.347L250.91,394.204Z" style="fill:rgb(208,210,211);"/>
                                    </g>
                                </g>
                                <g transform="matrix(0.730704,0,0,0.730704,-141.714,44.0851)">
                                    <g transform="matrix(10.8084,0,0,10.8084,344.837,405.505)">
                                        <path d="M0.073,0L0.073,-0.716L0.305,-0.716C0.393,-0.716 0.45,-0.712 0.477,-0.705C0.518,-0.694 0.552,-0.671 0.58,-0.635C0.607,-0.599 0.621,-0.553 0.621,-0.496C0.621,-0.452 0.613,-0.415 0.597,-0.385C0.581,-0.355 0.561,-0.331 0.536,-0.314C0.512,-0.297 0.487,-0.286 0.461,-0.28C0.427,-0.273 0.377,-0.27 0.312,-0.27L0.217,-0.27L0.217,0L0.073,0ZM0.217,-0.595L0.217,-0.392L0.296,-0.392C0.353,-0.392 0.391,-0.395 0.411,-0.403C0.43,-0.41 0.445,-0.422 0.456,-0.438C0.467,-0.454 0.472,-0.472 0.472,-0.494C0.472,-0.52 0.465,-0.541 0.449,-0.558C0.434,-0.575 0.415,-0.586 0.391,-0.59C0.374,-0.593 0.339,-0.595 0.287,-0.595L0.217,-0.595Z" style="fill:rgb(208,210,211);fill-rule:nonzero;"/>
                                    </g>
                                    <g transform="matrix(10.8084,0,0,10.8084,351.244,405.505)">
                                        <path d="M0.718,0L0.561,0L0.499,-0.163L0.212,-0.163L0.153,0L0,0L0.279,-0.716L0.432,-0.716L0.718,0ZM0.452,-0.283L0.354,-0.549L0.257,-0.283L0.452,-0.283Z" style="fill:rgb(208,210,211);fill-rule:nonzero;"/>
                                    </g>
                                    <g transform="matrix(10.8084,0,0,10.8084,359.05,405.505)">
                                        <rect x="0.068" y="-0.716" width="0.145" height="0.716" style="fill:rgb(208,210,211);fill-rule:nonzero;"/>
                                    </g>
                                    <g transform="matrix(10.8084,0,0,10.8084,362.053,405.505)">
                                        <path d="M0.074,0L0.074,-0.716L0.215,-0.716L0.508,-0.238L0.508,-0.716L0.642,-0.716L0.642,0L0.497,0L0.208,-0.467L0.208,0L0.074,0Z" style="fill:rgb(208,210,211);fill-rule:nonzero;"/>
                                    </g>
                                    <g transform="matrix(10.8084,0,0,10.8084,369.858,405.505)">
                                        <path d="M0.234,0L0.234,-0.595L0.021,-0.595L0.021,-0.716L0.59,-0.716L0.59,-0.595L0.378,-0.595L0.378,0L0.234,0Z" style="fill:rgb(208,210,211);fill-rule:nonzero;"/>
                                    </g>
                                </g>
                                <g  serif:id="PaintSwitchesBackground" transform="matrix(0.110188,0,0,1.3584,88.4797,-748.005)">
                                    <path d="M559.057,763.781C559.057,761.501 536.234,759.65 508.123,759.65L100.657,759.65C72.546,759.65 49.723,761.501 49.723,763.781L49.723,800.851C49.723,803.132 72.546,804.983 100.657,804.983L508.123,804.983C536.234,804.983 559.057,803.132 559.057,800.851L559.057,763.781Z" style="fill:rgb(115,118,120);fill-opacity:0;"/>
                                </g>
                            </g>
                            <g transform="matrix(0.263409,0,0,0.263409,34.2339,322.861)">
                                <g transform="matrix(4.16667,0,0,4.16667,154.48,493.627)">
                                    <path d="M0,-33.219L-18.667,-17.842C-18.667,-17.82 -18.671,-17.788 -18.683,-17.744C-18.693,-17.702 -18.698,-17.67 -18.698,-17.647L-18.698,-2.077C-18.698,-1.515 -18.493,-1.028 -18.082,-0.616C-17.671,-0.206 -17.184,0 -16.622,0L-4.156,0L-4.156,-12.457L4.156,-12.457L4.156,0L16.622,0C17.185,0 17.672,-0.205 18.083,-0.616C18.494,-1.028 18.701,-1.515 18.701,-2.077L18.701,-17.647C18.701,-17.735 18.688,-17.8 18.667,-17.842L0,-33.219Z" style="fill:rgb(208,210,211);"/>
                                </g>
                                <g transform="matrix(4.16667,0,0,4.16667,262.017,337.873)">
                                    <path d="M0,16.035L-7.109,10.131L-7.109,-3.104C-7.109,-3.407 -7.207,-3.656 -7.402,-3.851C-7.596,-4.045 -7.845,-4.142 -8.149,-4.142L-14.381,-4.142C-14.684,-4.142 -14.933,-4.045 -15.128,-3.851C-15.323,-3.656 -15.42,-3.407 -15.42,-3.104L-15.42,3.222L-23.342,-3.396C-24.034,-3.96 -24.855,-4.24 -25.808,-4.24C-26.761,-4.24 -27.583,-3.96 -28.275,-3.396L-51.617,16.035C-51.834,16.208 -51.952,16.441 -51.975,16.732C-51.997,17.025 -51.92,17.28 -51.748,17.495L-49.735,19.896C-49.561,20.091 -49.334,20.209 -49.053,20.253C-48.793,20.275 -48.533,20.199 -48.273,20.026L-25.809,1.307L-3.344,20.026C-3.17,20.177 -2.943,20.253 -2.662,20.253L-2.564,20.253C-2.283,20.209 -2.057,20.09 -1.883,19.895L0.131,17.495C0.303,17.279 0.379,17.025 0.356,16.732C0.334,16.441 0.216,16.208 0,16.035" style="fill:rgb(208,210,211);"/>
                                </g>
                                <g transform="matrix(3.37623,0,0,3.37623,-141.853,-119.463)">
                                    <g transform="matrix(1,0,0,1,71.188,196.204)">
                                        <path d="M0,8.577L0,0L1.733,0L1.733,3.376L5.128,3.376L5.128,0L6.861,0L6.861,8.577L5.128,8.577L5.128,4.827L1.733,4.827L1.733,8.577L0,8.577Z" style="fill:rgb(208,210,211);fill-rule:nonzero;"/>
                                    </g>
                                    <g transform="matrix(1,0,0,1,81.2754,200.498)">
                                        <path d="M0,-0.011C0,0.96 0.225,1.696 0.673,2.197C1.122,2.698 1.692,2.949 2.383,2.949C3.074,2.949 3.641,2.7 4.083,2.203C4.526,1.706 4.748,0.96 4.748,-0.034C4.748,-1.017 4.532,-1.751 4.101,-2.234C3.67,-2.718 3.097,-2.96 2.383,-2.96C1.668,-2.96 1.093,-2.715 0.656,-2.225C0.219,-1.736 0,-0.998 0,-0.011M-1.786,0.047C-1.786,-0.826 -1.655,-1.559 -1.394,-2.153C-1.198,-2.589 -0.932,-2.981 -0.594,-3.328C-0.257,-3.676 0.113,-3.933 0.515,-4.101C1.05,-4.327 1.667,-4.44 2.365,-4.44C3.63,-4.44 4.642,-4.048 5.401,-3.264C6.16,-2.48 6.54,-1.39 6.54,0.006C6.54,1.391 6.163,2.474 5.41,3.256C4.656,4.038 3.649,4.429 2.389,4.429C1.112,4.429 0.098,4.04 -0.656,3.262C-1.409,2.484 -1.786,1.412 -1.786,0.047" style="fill:rgb(208,210,211);fill-rule:nonzero;"/>
                                    </g>
                                    <g transform="matrix(1,0,0,1,89.144,196.204)">
                                        <path d="M0,8.577L0,0L2.593,0L4.151,5.851L5.69,0L8.29,0L8.29,8.577L6.68,8.577L6.68,1.826L4.976,8.577L3.308,8.577L1.61,1.826L1.61,8.577L0,8.577Z" style="fill:rgb(208,210,211);fill-rule:nonzero;"/>
                                    </g>
                                    <g transform="matrix(1,0,0,1,99.1553,196.204)">
                                        <path d="M0,8.577L0,0L6.364,0L6.364,1.451L1.733,1.451L1.733,3.352L6.042,3.352L6.042,4.798L1.733,4.798L1.733,7.132L6.528,7.132L6.528,8.577L0,8.577Z" style="fill:rgb(208,210,211);fill-rule:nonzero;"/>
                                    </g>
                                </g>
                                <g  serif:id="HomeBackground" transform="matrix(0.57745,0,0,7.39258,-21.292,-5341.94)">
                                    <path d="M559.057,763.628C559.057,761.432 536.234,759.65 508.123,759.65L100.657,759.65C72.546,759.65 49.723,761.432 49.723,763.628L49.723,801.004C49.723,803.2 72.546,804.983 100.657,804.983L508.123,804.983C536.234,804.983 559.057,803.2 559.057,801.004L559.057,763.628Z" style="fill:rgb(115,118,120);fill-opacity:0;"/>
                                </g>
                            </g>
                        </g>
                    </g>
                </g>
            </svg>