<svg xmlns="http://www.w3.org/2000/svg" width="30.88" height="24.699" viewBox="0 0 30.88 24.699">
  <g id="noun_speak_3182956" transform="translate(-0.528 -2.117)">
    <g id="Group_71" data-name="Group 71" transform="translate(0.528 2.117)">
      <path id="Path_35" data-name="Path 35" d="M11.848,282.184A7.2,7.2,0,0,0,7.754,295.3,11.34,11.34,0,0,0,.528,305.854a1.029,1.029,0,0,0,1.03,1.029H22.143a1.029,1.029,0,0,0,1.025-1.029,11.34,11.34,0,0,0-7.224-10.55,7.2,7.2,0,0,0-4.1-13.12Zm0,2.059a5.145,5.145,0,1,1-5.143,5.143A5.13,5.13,0,0,1,11.848,284.243Zm0,12.349a9.149,9.149,0,0,1,9.057,8.232H2.793A9.148,9.148,0,0,1,11.848,296.592Z" transform="translate(-0.528 -282.184)" fill="#0024ff"/>
      <path id="Path_36" data-name="Path 36" d="M12,283.841a1.029,1.029,0,0,0-.932,1.369,8.226,8.226,0,0,1,.443,2.611,8.411,8.411,0,0,1-.736,3.377,1.029,1.029,0,1,0,1.885.826,10.471,10.471,0,0,0,.909-4.2,10.291,10.291,0,0,0-.55-3.264,1.029,1.029,0,0,0-1.02-.716Z" transform="translate(9.074 -280.618)" fill="#0024ff"/>
      <path id="Path_37" data-name="Path 37" d="M14.087,283.234a1.029,1.029,0,0,0-.935,1.367,12,12,0,0,1,.632,3.79,12.255,12.255,0,0,1-1.055,4.9,1.029,1.029,0,1,0,1.888.822,14.308,14.308,0,0,0,1.226-5.723,14.065,14.065,0,0,0-.737-4.439,1.029,1.029,0,0,0-1.019-.718Z" transform="translate(10.919 -281.192)" fill="#0024ff"/>
      <path id="Path_38" data-name="Path 38" d="M16.167,282.629A1.029,1.029,0,0,0,15.232,284a15.727,15.727,0,0,1,.827,4.966,16.048,16.048,0,0,1-1.381,6.418,1.029,1.029,0,0,0,1.888.822,18.1,18.1,0,0,0,1.552-7.24,17.789,17.789,0,0,0-.932-5.615A1.029,1.029,0,0,0,16.167,282.629Z" transform="translate(12.762 -281.763)" fill="#0024ff"/>
    </g>
  </g>
</svg>
