<svg xmlns="http://www.w3.org/2000/svg" width="27.077" height="33" viewBox="0 0 27.077 33">
  <path id="Icon_material-notifications-none" data-name="Icon material-notifications-none" d="M19.538,36.75a3.4,3.4,0,0,0,3.385-3.385H16.154A3.4,3.4,0,0,0,19.538,36.75ZM29.692,26.6V18.135c0-5.2-2.758-9.545-7.615-10.7V6.288a2.538,2.538,0,1,0-5.077,0V7.439c-4.84,1.151-7.615,5.483-7.615,10.7V26.6L6,29.981v1.692H33.077V29.981Zm-3.385,1.692H12.769V18.135c0-4.2,2.555-7.615,6.769-7.615s6.769,3.418,6.769,7.615Z" transform="translate(-6 -3.75)" fill="#0024ff"/>
</svg>
