<svg xmlns="http://www.w3.org/2000/svg" xmlns:xlink="http://www.w3.org/1999/xlink" width="33.53" height="23.124" viewBox="0 0 33.53 23.124">
  <defs>
    <linearGradient id="linear-gradient" x1="0.5" x2="0.5" y2="1" gradientUnits="objectBoundingBox">
      <stop offset="0"/>
      <stop offset="1" stop-color="#545454"/>
    </linearGradient>
  </defs>
  <g id="Icon_ionic-ios-mail" data-name="Icon ionic-ios-mail" transform="translate(-3.375 -7.875)">
    <path id="Path_9" data-name="Path 9" d="M36.631,10.363l-8.673,8.785a.154.154,0,0,0,0,.224L34.027,25.8a1.036,1.036,0,0,1,0,1.475,1.055,1.055,0,0,1-1.483,0l-6.045-6.4a.166.166,0,0,0-.234,0l-1.475,1.491a6.507,6.507,0,0,1-4.626,1.94,6.638,6.638,0,0,1-4.723-2l-1.419-1.435a.166.166,0,0,0-.234,0l-6.045,6.4a1.055,1.055,0,0,1-1.483,0,1.036,1.036,0,0,1,0-1.475l6.069-6.428a.17.17,0,0,0,0-.224L3.649,10.363a.159.159,0,0,0-.274.112V28.053a2.58,2.58,0,0,0,2.579,2.565H34.326A2.58,2.58,0,0,0,36.9,28.053V10.475A.161.161,0,0,0,36.631,10.363Z" transform="translate(0 0.381)" fill="url(#linear-gradient)"/>
    <path id="Path_10" data-name="Path 10" d="M20.007,22.76a4.36,4.36,0,0,0,3.15-1.333L35.8,8.444a2.518,2.518,0,0,0-1.6-.569H5.821a2.5,2.5,0,0,0-1.6.569l12.64,12.983A4.361,4.361,0,0,0,20.007,22.76Z" transform="translate(0.133)" fill="url(#linear-gradient)"/>
  </g>
</svg>
