<svg xmlns="http://www.w3.org/2000/svg" width="27.255" height="30.283" viewBox="0 0 27.255 30.283">
  <path id="Icon_material-event-note" data-name="Icon material-event-note" d="M25.7,14.118H10.557v3.028H25.7Zm3.028-9.59H27.212V1.5H24.184V4.528H12.071V1.5H9.043V4.528H7.528A3.015,3.015,0,0,0,4.515,7.557L4.5,28.755a3.027,3.027,0,0,0,3.028,3.028h21.2a3.037,3.037,0,0,0,3.028-3.028V7.557A3.037,3.037,0,0,0,28.727,4.528Zm0,24.227H7.528V7.052h21.2Zm-7.571-7.571h-10.6v3.028h10.6Z" transform="translate(-4.5 -1.5)" fill="#0024ff"/>
</svg>
