<svg id="Icon_ionic-logo-linkedin" data-name="Icon ionic-logo-linkedin" xmlns="http://www.w3.org/2000/svg" xmlns:xlink="http://www.w3.org/1999/xlink" width="32" height="32" viewBox="0 0 32 32">
  <defs>
    <linearGradient id="linear-gradient" x1="0.5" x2="0.5" y2="1" gradientUnits="objectBoundingBox">
      <stop offset="0"/>
      <stop offset="1" stop-color="#545454"/>
    </linearGradient>
  </defs>
  <path id="Icon_ionic-logo-linkedin-2" data-name="Icon ionic-logo-linkedin" d="M33.941,4.5H7.234A2.611,2.611,0,0,0,4.5,6.992V33.758A2.816,2.816,0,0,0,7.234,36.5h26.7A2.673,2.673,0,0,0,36.5,33.758V6.992A2.454,2.454,0,0,0,33.941,4.5ZM14.419,31.174H9.835V16.92h4.585ZM12.285,14.753h-.033a2.353,2.353,0,0,1-2.417-2.459A2.368,2.368,0,0,1,12.31,9.835a2.361,2.361,0,0,1,2.451,2.459A2.367,2.367,0,0,1,12.285,14.753ZM31.174,31.174H26.589V23.38c0-1.867-.667-3.142-2.326-3.142a2.508,2.508,0,0,0-2.351,1.692,3.087,3.087,0,0,0-.158,1.125v8.119H17.17V16.92h4.585V18.9a4.641,4.641,0,0,1,4.134-2.317c3.009,0,5.285,1.984,5.285,6.26v8.327Z" transform="translate(-4.5 -4.5)" fill="url(#linear-gradient)"/>
</svg>
