<svg xmlns="http://www.w3.org/2000/svg" width="22.64" height="24.699" viewBox="0 0 22.64 24.699">
  <path id="Path_35" data-name="Path 35" d="M11.848,282.184A7.2,7.2,0,0,0,7.754,295.3,11.34,11.34,0,0,0,.528,305.854a1.029,1.029,0,0,0,1.03,1.029H22.143a1.029,1.029,0,0,0,1.025-1.029,11.34,11.34,0,0,0-7.224-10.55,7.2,7.2,0,0,0-4.1-13.12Zm0,2.059a5.145,5.145,0,1,1-5.143,5.143A5.13,5.13,0,0,1,11.848,284.243Zm0,12.349a9.149,9.149,0,0,1,9.057,8.232H2.793A9.148,9.148,0,0,1,11.848,296.592Z" transform="translate(-0.528 -282.184)" fill="#0024ff"/>
</svg>
