<svg id="Component_7_2" data-name="Component 7 – 2" xmlns="http://www.w3.org/2000/svg" width="33" height="31" viewBox="0 0 33 31">
  <path id="Polygon_6" data-name="Polygon 6" d="M15.558,2.631a1,1,0,0,1,1.883,0l2.953,8.252a1,1,0,0,0,.916.663l8.833.223a1,1,0,0,1,.578,1.8l-6.993,5.293a1,1,0,0,0-.354,1.085L25.886,28.3a1,1,0,0,1-1.52,1.115l-7.3-4.965a1,1,0,0,0-1.124,0l-7.3,4.965A1,1,0,0,1,7.114,28.3l2.512-8.356a1,1,0,0,0-.354-1.085L2.279,13.566a1,1,0,0,1,.578-1.8l8.833-.223a1,1,0,0,0,.916-.663Z" fill="#ea9e52"/>
</svg>
