<svg xmlns="http://www.w3.org/2000/svg" width="36.303" height="30.014" viewBox="0 0 36.303 30.014">
  <g id="Group_117" data-name="Group 117" transform="translate(-1105 -29.019)">
    <g id="Icon_feather-users" data-name="Icon feather-users" transform="translate(1106 30.033)">
      <path id="Path_5" data-name="Path 5" d="M26.448,31.855V28.737A6.237,6.237,0,0,0,20.211,22.5H7.737A6.237,6.237,0,0,0,1.5,28.737v3.118" transform="translate(-1.5 -3.855)" fill="none" stroke="#0024ff" stroke-linecap="round" stroke-linejoin="round" stroke-width="2"/>
      <path id="Path_6" data-name="Path 6" d="M19.974,10.737A6.237,6.237,0,1,1,13.737,4.5a6.237,6.237,0,0,1,6.237,6.237Z" transform="translate(-1.263 -4.5)" fill="none" stroke="#0024ff" stroke-linecap="round" stroke-linejoin="round" stroke-width="2"/>
      <path id="Path_7" data-name="Path 7" d="M34.678,31.848V28.729A6.237,6.237,0,0,0,30,22.7" transform="translate(-0.375 -3.848)" fill="none" stroke="#0024ff" stroke-linecap="round" stroke-linejoin="round" stroke-width="2"/>
      <path id="Path_8" data-name="Path 8" d="M24,4.7a6.237,6.237,0,0,1,0,12.084" transform="translate(-0.612 -4.492)" fill="none" stroke="#0024ff" stroke-linecap="round" stroke-linejoin="round" stroke-width="2"/>
    </g>
    <path id="Icon_feather-star" data-name="Icon feather-star" d="M6.7,3,7.846,5.318l2.558.374-1.851,1.8.437,2.547L6.7,8.839l-2.288,1.2.437-2.547L3,5.692l2.558-.374Z" transform="translate(1111.595 47.925)" fill="none" stroke="#FFFFFF" stroke-linecap="round" stroke-linejoin="round" stroke-width="1"/>
  </g>
</svg>