<svg xmlns="http://www.w3.org/2000/svg" xmlns:xlink="http://www.w3.org/1999/xlink" width="31" height="24" viewBox="0 0 31 24">
  <defs>
    <clipPath id="clip-path">
      <rect x="5" y="4" width="23.991" height="19.991" fill="none"/>
    </clipPath>
    <clipPath id="clip-Artboard_1">
      <rect width="31" height="24"/>
    </clipPath>
  </defs>
  <g id="Artboard_1" data-name="Artboard – 1" clip-path="url(#clip-Artboard_1)">
    <g id="Component_37_1" data-name="Component 37 – 1" transform="translate(3.504 2.004)">
      <g id="Scroll_Group_1" data-name="Scroll Group 1" transform="translate(-5 -4)" clip-path="url(#clip-path)" style="isolation: isolate">
        <g id="Icon_ionic-ios-send" data-name="Icon ionic-ios-send">
          <path id="Icon_ionic-ios-send-2" data-name="Icon ionic-ios-send" d="M19.2.044.246,8.3a.434.434,0,0,0,.015.79l5.126,2.9a.827.827,0,0,0,.945-.093L16.44,3.183c.067-.057.227-.165.289-.1s-.036.222-.093.289L7.891,13.218a.824.824,0,0,0-.083.986l3.35,5.374a.436.436,0,0,0,.785-.01L19.78.617A.434.434,0,0,0,19.2.044Z" transform="translate(14.728 0) rotate(48)" fill="#fff"/>
        </g>
      </g>
    </g>
  </g>
</svg>
