<svg id="Icon_awesome-sort-alpha-down-alt" data-name="Icon awesome-sort-alpha-down-alt" xmlns="http://www.w3.org/2000/svg" width="31.5" height="31.5" viewBox="0 0 31.5 31.5">
  <path id="Icon_awesome-sort-alpha-down-alt-2" data-name="Icon awesome-sort-alpha-down-alt" d="M12.375,24.75H9V3.375A1.125,1.125,0,0,0,7.875,2.25H5.625A1.125,1.125,0,0,0,4.5,3.375V24.75H1.125a1.126,1.126,0,0,0-.794,1.92l5.625,6.75a1.125,1.125,0,0,0,1.59,0l5.625-6.75A1.127,1.127,0,0,0,12.375,24.75Zm7.875-9h9a1.125,1.125,0,0,0,1.125-1.125v-2.25A1.125,1.125,0,0,0,29.25,11.25H25.313L29.62,6.3a2.25,2.25,0,0,0,.755-1.682V3.375A1.125,1.125,0,0,0,29.25,2.25h-9a1.125,1.125,0,0,0-1.125,1.125v2.25A1.125,1.125,0,0,0,20.25,6.75h3.938L19.88,11.7a2.25,2.25,0,0,0-.755,1.682v1.24A1.125,1.125,0,0,0,20.25,15.75Zm11.184,16.5L27.266,21a1.125,1.125,0,0,0-1.06-.747H23.293a1.125,1.125,0,0,0-1.06.747l-4.167,11.25a1.125,1.125,0,0,0,1.059,1.5h1.746a1.125,1.125,0,0,0,1.071-.779l.311-.908h4.992l.31.908a1.125,1.125,0,0,0,1.074.779h1.747a1.125,1.125,0,0,0,1.059-1.5ZM23.6,28.125,24.75,24.75,25.9,28.125Z" transform="translate(0 -2.25)" fill="#0024ff"/>
</svg>
