 <svg width="100%" height="100%" viewBox="0 0 287 163" version="1.1" xmlns="http://www.w3.org/2000/svg" xmlns:xlink="http://www.w3.org/1999/xlink" xml:space="preserve" xmlns:serif="http://www.serif.com/" style="fill-rule:evenodd;clip-rule:evenodd;stroke-linejoin:round;stroke-miterlimit:2;">
            <g transform="matrix(1,0,0,1,-1185.92,-737.225)">
                <g transform="matrix(1,0,0,3.58088,1437.09,-1977.14)">
                    <g id="LightMainBackgrond" transform="matrix(0.561518,0,0,1,-279.09,-1.59428)">
                        <path d="M559.057,764.183C559.057,761.681 546.103,759.65 530.147,759.65L78.633,759.65C62.677,759.65 49.723,761.681 49.723,764.183L49.723,800.45C49.723,802.952 62.677,804.983 78.633,804.983L530.147,804.983C546.103,804.983 559.057,802.952 559.057,800.45L559.057,764.183Z" style="fill:rgb(115,118,120);fill-opacity:0.5;"/>
                    </g>
                    <g transform="matrix(1,0,0,1,-4.67636,0.167969)">
                        <g transform="matrix(0.27857,0,0,0.999648,-259.914,-1.53359)">
                            <path d="M559.057,763.613C559.057,761.426 536.234,759.65 508.123,759.65L100.657,759.65C72.546,759.65 49.723,761.426 49.723,763.613L49.723,801.019C49.723,803.207 72.546,804.983 100.657,804.983L508.123,804.983C536.234,804.983 559.057,803.207 559.057,801.019L559.057,763.613Z" style="fill:rgb(115,118,120);fill-opacity:0.5;"/>
                        </g>
                        <g transform="matrix(0.277728,0,0,0.999648,-115.755,-1.53359)">
                            <path d="M559.057,763.601C559.057,761.42 536.234,759.65 508.123,759.65L100.657,759.65C72.546,759.65 49.723,761.42 49.723,763.601L49.723,801.031C49.723,803.212 72.546,804.983 100.657,804.983L508.123,804.983C536.234,804.983 559.057,803.212 559.057,801.031L559.057,763.601Z" style="fill:rgb(115,118,120);fill-opacity:0.5;"/>
                        </g>
                    </g>
                    <g >
                        <g transform="matrix(0.900696,0,0,0.251529,-881.939,697.149)">
                            <text x="902.248px" y="392.983px" style="font-family:'Arial-BoldMT', 'Arial', sans-serif;font-weight:700;font-size:12px;fill:rgb(208,210,211);">BACK LIGHT</text>
                        </g>
                        <g transform="matrix(0.84256,0,0,0.235294,-303.7,562.387)">
                            <g transform="matrix(1,0,0,1,324.541,889.23)">
                                <path d="M0,50.914L0,-0.035C0,-4.398 -5.949,-2.945 -7.448,-2.928C-20.324,-2.776 -39.443,1.943 -48.207,10.785C-50.077,12.674 -51.827,14.365 -53.093,16.875C-56.006,22.648 -56.461,28.013 -53.165,33.868C-52.404,35.219 -51.894,35.904 -51.009,37.097C-45.768,44.164 -35.045,48.59 -26.791,50.987C-21.617,52.489 -13.219,53.806 -7.657,53.807C-6.052,53.807 0,55.312 0,50.914M-49.085,26.475C-49.085,23.398 -49.14,22.552 -47.497,19.571C-46.737,18.193 -46.195,17.818 -45.446,16.858C-44.233,15.307 -44.325,15.727 -43.027,14.514L-39.287,11.834C-38.509,11.371 -37.937,11.109 -37.161,10.646C-31.363,7.181 -23.827,5.763 -17.604,4.313L-17.604,46.564L-22.907,45.448C-29.269,43.847 -37.691,40.943 -42.811,36.562C-44.571,35.056 -46.229,33.499 -47.422,31.438C-48.081,30.299 -49.085,28.217 -49.085,26.475M-13.255,3.691C-10.989,3.691 -9.088,3.278 -6.213,3.278L-6.213,47.6C-9.085,47.6 -10.951,47.186 -13.255,47.186L-13.255,3.691Z" style="fill:rgb(208,210,211);"/>
                            </g>
                            <g transform="matrix(1,0,0,1,331.998,921.297)">
                                <path d="M0,-0.829C0,1.294 1.045,2.692 3.106,2.692L32.309,2.692C35.991,2.692 35.991,-3.521 32.309,-3.521L3.106,-3.521C1.506,-3.521 0,-2.319 0,-0.829" style="fill:rgb(208,210,211);"/>
                            </g>
                            <g transform="matrix(1,0,0,1,331.998,908.455)">
                                <path d="M0,0.001C0,1.938 1.327,3.107 3.106,3.107L32.309,3.107C35.793,3.107 36.396,-3.106 31.896,-3.106L3.106,-3.106C1.338,-3.106 0,-1.769 0,0.001" style="fill:rgb(208,210,211);"/>
                            </g>
                            <g transform="matrix(1,0,0,1,331.998,933.723)">
                                <path d="M0,-0.829C0,1.343 1.139,2.692 3.314,2.692L31.896,2.692C36.12,2.692 36.214,-3.521 32.103,-3.521L2.691,-3.521C1.422,-3.521 0,-2.099 0,-0.829" style="fill:rgb(208,210,211);"/>
                            </g>
                            <g transform="matrix(1,0,0,1,331.998,896.028)">
                                <path d="M0,0C0,1.872 1.42,3.107 2.691,3.107L32.103,3.107C36.196,3.107 36.126,-3.107 31.896,-3.107L3.314,-3.107C1.448,-3.107 0,-1.885 0,0" style="fill:rgb(208,210,211);"/>
                            </g>
                        </g>
                        <g transform="matrix(0.27857,0,0,0.999648,-120.474,-1.36563)">
                            <path d="M559.057,763.613C559.057,761.426 536.234,759.65 508.123,759.65L100.657,759.65C72.546,759.65 49.723,761.426 49.723,763.613L49.723,801.019C49.723,803.207 72.546,804.983 100.657,804.983L508.123,804.983C536.234,804.983 559.057,803.207 559.057,801.019L559.057,763.613Z" style="fill:rgb(115,118,120);fill-opacity:0;"/>
                        </g>
                    </g>
                    <g  >
                        <g transform="matrix(0.900696,0,0,0.251529,-1006.24,697.149)">
                            <text x="880.58px" y="392.983px" style="font-family:'Arial-BoldMT', 'Arial', sans-serif;font-weight:700;font-size:12px;fill:rgb(208,210,211);">HEAD LIGHT</text>
                        </g>
                        <g transform="matrix(0.842479,0,0,0.235271,-290.079,562.446)">
                            <g transform="matrix(1,0,0,1,124.461,889.23)">
                                <path d="M0,50.914L0,-0.035C0,-4.398 5.949,-2.945 7.449,-2.928C20.325,-2.776 39.443,1.943 48.207,10.785C50.078,12.674 51.827,14.365 53.093,16.875C56.007,22.648 56.462,28.013 53.165,33.868C52.405,35.219 51.895,35.904 51.01,37.097C45.768,44.164 35.046,48.59 26.792,50.987C21.618,52.489 13.219,53.806 7.657,53.807C6.052,53.807 0,55.312 0,50.914M49.085,26.475C49.085,23.398 49.14,22.552 47.498,19.571C46.738,18.193 46.196,17.818 45.447,16.858C44.234,15.307 44.326,15.727 43.028,14.514L39.287,11.834C38.51,11.371 37.938,11.109 37.162,10.646C31.364,7.181 23.828,5.763 17.605,4.313L17.605,46.564L22.908,45.448C29.27,43.847 37.692,40.943 42.812,36.562C44.571,35.056 46.23,33.499 47.423,31.438C48.082,30.299 49.085,28.217 49.085,26.475M13.256,3.691C10.989,3.691 9.089,3.278 6.214,3.278L6.214,47.6C9.085,47.6 10.952,47.186 13.256,47.186L13.256,3.691Z" style="fill:rgb(208,210,211);"/>
                            </g>
                            <g transform="matrix(1,0,0,1,117.005,921.297)">
                                <path d="M0,-0.829C0,1.294 -1.045,2.692 -3.106,2.692L-32.309,2.692C-35.99,2.692 -35.99,-3.521 -32.309,-3.521L-3.106,-3.521C-1.506,-3.521 0,-2.319 0,-0.829" style="fill:rgb(208,210,211);"/>
                            </g>
                            <g transform="matrix(1,0,0,1,117.005,908.455)">
                                <path d="M0,0.001C0,1.938 -1.328,3.107 -3.106,3.107L-32.309,3.107C-35.793,3.107 -36.396,-3.106 -31.896,-3.106L-3.106,-3.106C-1.338,-3.106 0,-1.769 0,0.001" style="fill:rgb(208,210,211);"/>
                            </g>
                            <g transform="matrix(1,0,0,1,117.005,933.723)">
                                <path d="M0,-0.829C0,1.343 -1.138,2.692 -3.314,2.692L-31.896,2.692C-36.119,2.692 -36.214,-3.521 -32.102,-3.521L-2.691,-3.521C-1.422,-3.521 0,-2.099 0,-0.829" style="fill:rgb(208,210,211);"/>
                            </g>
                            <g transform="matrix(1,0,0,1,117.005,896.028)">
                                <path d="M0,0C0,1.872 -1.419,3.107 -2.691,3.107L-32.102,3.107C-36.196,3.107 -36.126,-3.107 -31.896,-3.107L-3.314,-3.107C-1.448,-3.107 0,-1.885 0,0" style="fill:rgb(208,210,211);"/>
                            </g>
                        </g>
                        <g  transform="matrix(0.27857,0,0,0.999648,-264.591,-1.32706)">
                            <path d="M559.057,763.613C559.057,761.426 536.234,759.65 508.123,759.65L100.657,759.65C72.546,759.65 49.723,761.426 49.723,763.613L49.723,801.019C49.723,803.207 72.546,804.983 100.657,804.983L508.123,804.983C536.234,804.983 559.057,803.207 559.057,801.019L559.057,763.613Z" style="fill:rgb(115,118,120);fill-opacity:0;"/>
                        </g>
                    </g>
                </g>
            </g>
        </svg>