<svg xmlns="http://www.w3.org/2000/svg"  width="20.67" height="19.875" viewBox="0 0 20.67 19.875">
  <path id="Icon_ionic-ios-heart-empty" data-name="Icon ionic-ios-heart-empty" d="M18.48,3.938h-.05a5.654,5.654,0,0,0-4.72,2.584A5.654,5.654,0,0,0,8.99,3.938H8.94A5.618,5.618,0,0,0,3.375,9.552,12.1,12.1,0,0,0,5.75,16.146a41.622,41.622,0,0,0,7.96,7.667,41.622,41.622,0,0,0,7.96-7.667,12.1,12.1,0,0,0,2.375-6.594A5.618,5.618,0,0,0,18.48,3.938Zm2.067,11.388a38.11,38.11,0,0,1-6.837,6.738,38.167,38.167,0,0,1-6.837-6.743A10.719,10.719,0,0,1,4.766,9.552,4.216,4.216,0,0,1,8.95,5.334h.045a4.166,4.166,0,0,1,2.042.537,4.342,4.342,0,0,1,1.51,1.416,1.4,1.4,0,0,0,2.335,0,4.385,4.385,0,0,1,1.51-1.416,4.166,4.166,0,0,1,2.042-.537h.045a4.216,4.216,0,0,1,4.184,4.218A10.855,10.855,0,0,1,20.547,15.326Z" transform="translate(-3.375 -3.938)" fill="#ffffff"/>
</svg>