<svg xmlns="http://www.w3.org/2000/svg" width="6" height="12" viewBox="0 0 6 12">
  <path id="attachicon" d="M15.469,5.707a.412.412,0,0,0-.405.418v5.206a2.2,2.2,0,0,1-.571,1.476,2.026,2.026,0,0,1-1.442.635H12.7a1.992,1.992,0,0,1-1.423-.659,2.183,2.183,0,0,1-.621-1.478V4.588A1.477,1.477,0,0,1,11.1,3.53a1.521,1.521,0,0,1,1.065-.437,1.439,1.439,0,0,1,1.034.434,1.517,1.517,0,0,1,.426,1.06V10.86a.837.837,0,0,1-.753.862.814.814,0,0,1-.732-.862V7.282a.405.405,0,1,0-.81,0V10.86a1.574,1.574,0,0,0,1.543,1.668,1.513,1.513,0,0,0,1.109-.463,1.721,1.721,0,0,0,.455-1.205V4.588a2.347,2.347,0,0,0-.668-1.655,2.246,2.246,0,0,0-3.226,0,2.347,2.347,0,0,0-.673,1.658v6.716a3.04,3.04,0,0,0,.847,2.089,2.766,2.766,0,0,0,1.977.854h.353a2.8,2.8,0,0,0,1.971-.86,3.013,3.013,0,0,0,.621-.927,2.878,2.878,0,0,0,.231-1.127V6.125A.408.408,0,0,0,15.469,5.707Z" transform="translate(-9.872 -2.25)" fill="#c7c7c7"/>
</svg>
