<svg xmlns="http://www.w3.org/2000/svg" width="15.656" height="12.985" viewBox="0 0 15.656 12.985">
  <g id="attendeesicon" transform="translate(-1106.5 -29.511)">
    <g id="Icon_feather-users" data-name="Icon feather-users" transform="translate(1107 30.033)">
      <path id="Path_5" data-name="Path 5" d="M12.159,26.5V25.165A2.665,2.665,0,0,0,9.494,22.5H4.165A2.665,2.665,0,0,0,1.5,25.165V26.5" transform="translate(-1.5 -14.534)" fill="none" stroke="#000" stroke-linecap="round" stroke-linejoin="round" stroke-width="1"/>
      <path id="Path_6" data-name="Path 6" d="M12.83,7.165A2.665,2.665,0,1,1,10.165,4.5,2.665,2.665,0,0,1,12.83,7.165Z" transform="translate(-4.835 -4.5)" fill="none" stroke="#000" stroke-linecap="round" stroke-linejoin="round" stroke-width="1"/>
      <path id="Path_7" data-name="Path 7" d="M32,26.606V25.273A2.665,2.665,0,0,0,30,22.7" transform="translate(-17.342 -14.642)" fill="none" stroke="#000" stroke-linecap="round" stroke-linejoin="round" stroke-width="1"/>
      <path id="Path_8" data-name="Path 8" d="M24,4.7a2.665,2.665,0,0,1,0,5.163" transform="translate(-14.007 -4.608)" fill="none" stroke="#000" stroke-linecap="round" stroke-linejoin="round" stroke-width="1"/>
    </g>
  </g>
</svg>
