<svg xmlns="http://www.w3.org/2000/svg" width="14" height="12" viewBox="0 0 14 12">
  <path id="cameraicon" d="M14,5.25v7.714a1.3,1.3,0,0,1-1.312,1.286H1.313A1.3,1.3,0,0,1,0,12.964V5.25A1.3,1.3,0,0,1,1.313,3.964H3.719l.336-.881A1.31,1.31,0,0,1,5.283,2.25H8.714a1.31,1.31,0,0,1,1.228.833l.339.881h2.406A1.3,1.3,0,0,1,14,5.25ZM10.281,9.107A3.282,3.282,0,1,0,7,12.321,3.251,3.251,0,0,0,10.281,9.107Zm-.875,0A2.407,2.407,0,1,1,7,6.75,2.386,2.386,0,0,1,9.406,9.107Z" transform="translate(0 -2.25)" fill="#c7c7c7"/>
</svg>
