<svg xmlns="http://www.w3.org/2000/svg" width="21" height="21" viewBox="0 0 21 21">
  <g id="chatIcon" transform="translate(0.5 0.5)">
    <path id="Subtraction_1" data-name="Subtraction 1" d="M0,19.237V2.138A2.068,2.068,0,0,1,1.986,0h13.9a2.068,2.068,0,0,1,1.986,2.138V5.344H7.9A1.576,1.576,0,0,0,6.383,6.973v7.989H3.972L0,19.235Z" fill="none" stroke="#000" stroke-linecap="round" stroke-linejoin="round" stroke-width="1"/>
    <path id="Icon_feather-message-square" data-name="Icon feather-message-square" d="M18.117,14.27A1.574,1.574,0,0,1,16.6,15.9H7.526L4.5,19.156V6.128A1.574,1.574,0,0,1,6.013,4.5H16.6a1.574,1.574,0,0,1,1.513,1.628Z" transform="translate(1.883 0.844)" fill="none" stroke="#000" stroke-linecap="round" stroke-linejoin="round" stroke-width="1"/>
  </g>
</svg>
