<svg xmlns="http://www.w3.org/2000/svg" width="35.327" height="28.029" viewBox="0 0 35.327 28.029">
  <g id="clouduploadicon" transform="translate(-0.264 -3.474)">
    <path id="Path_75" data-name="Path 75" d="M24,24l-6-6-6,6" transform="translate(0 -0.641)" fill="none" stroke="#0024ff" stroke-linecap="round" stroke-linejoin="round" stroke-width="2"/>
    <path id="Path_76" data-name="Path 76" d="M18,18V31.5" transform="translate(0 -0.997)" fill="none" stroke="#0024ff" stroke-linecap="round" stroke-linejoin="round" stroke-width="2"/>
    <path id="Path_77" data-name="Path 77" d="M30.585,26.588a7.063,7.063,0,0,0,3.678-8.071A7.448,7.448,0,0,0,27,13.112H25.11A11.847,11.847,0,0,0,14.853,4.578a12.139,12.139,0,0,0-12,6.1A11.1,11.1,0,0,0,4.5,23.589" transform="translate(0 0)" fill="none" stroke="#0024ff" stroke-linecap="round" stroke-linejoin="round" stroke-width="2"/>
    <path id="Path_78" data-name="Path 78" d="M24,24l-6-6-6,6" transform="translate(0 -0.641)" fill="none" stroke="#0024ff" stroke-linecap="round" stroke-linejoin="round" stroke-width="2"/>
  </g>
</svg>
