<svg xmlns="http://www.w3.org/2000/svg" width="27.507" height="36" viewBox="0 0 27.507 36">
  <g id="descsorticon" transform="translate(-1175.493 -522)">
    <path id="Icon_ionic-ios-arrow-round-up" data-name="Icon ionic-ios-arrow-round-up" d="M24.985,21.274a.953.953,0,0,0-1.342-.007L19.2,25.694V8.823a.948.948,0,0,0-1.9,0V25.694L12.862,21.26a.96.96,0,0,0-1.342.007.944.944,0,0,0,.007,1.335l6.054,6.01h0a1.065,1.065,0,0,0,.3.2.905.905,0,0,0,.365.073.951.951,0,0,0,.664-.27l6.054-6.01A.929.929,0,0,0,24.985,21.274Z" transform="translate(1164.246 521.618)" fill="#0024ff"/>
    <text id="A_Z" data-name="A
Z" transform="translate(1192 523)" fill="#0024ff" stroke="#0024ff" stroke-width="1" font-size="15" font-family="Geomanist" letter-spacing="0.025em"><tspan x="-4.733" y="15">A</tspan><tspan x="-4.455" y="30">Z</tspan></text>
  </g>
</svg>
