<svg xmlns="http://www.w3.org/2000/svg" width="15" height="15" viewBox="0 0 15 15"><defs><style>.a{fill:#0024ff;}</style></defs><path class="a" d="M10.484,2.442l2.349,2.643a.313.313,0,0,1,0,.4l-5.687,6.4-2.417.3a.541.541,0,0,1-.56-.63l.268-2.719,5.688-6.4A.235.235,0,0,1,10.484,2.442ZM14.7,1.771,13.432.341a.94.94,0,0,0-1.437,0l-.922,1.037a.313.313,0,0,0,0,.4l2.349,2.643a.235.235,0,0,0,.359,0L14.7,3.389a1.25,1.25,0,0,0,0-1.618ZM10,10.149v2.983H1.667V3.755H7.651a.3.3,0,0,0,.221-.1L8.914,2.48a.359.359,0,0,0-.221-.6H1.25A1.336,1.336,0,0,0,0,3.286V13.6a1.336,1.336,0,0,0,1.25,1.407h9.167a1.336,1.336,0,0,0,1.25-1.407V8.977a.31.31,0,0,0-.534-.249L10.091,9.9A.385.385,0,0,0,10,10.149Z" transform="translate(0 -0.007)"/></svg>