<svg xmlns="http://www.w3.org/2000/svg" width="20" height="20" viewBox="0 0 20 20">
  <path id="Icon_ionic-ios-heart-empty" data-name="Icon ionic-ios-heart-empty" d="M17.99,3.938h-.048a5.424,5.424,0,0,0-4.567,2.6,5.424,5.424,0,0,0-4.567-2.6H8.76a5.55,5.55,0,0,0-5.385,5.65,12.485,12.485,0,0,0,2.3,6.635,40.955,40.955,0,0,0,7.7,7.715,40.955,40.955,0,0,0,7.7-7.715,12.485,12.485,0,0,0,2.3-6.635A5.55,5.55,0,0,0,17.99,3.938Zm2,11.46a37.592,37.592,0,0,1-6.615,6.78A37.649,37.649,0,0,1,6.76,15.392a11.064,11.064,0,0,1-2.038-5.8A4.319,4.319,0,0,1,5.9,6.6,3.984,3.984,0,0,1,8.769,5.342h.043a3.911,3.911,0,0,1,1.976.54A4.273,4.273,0,0,1,12.25,7.308a1.323,1.323,0,0,0,2.26,0,4.316,4.316,0,0,1,1.462-1.425,3.911,3.911,0,0,1,1.976-.54h.043A3.993,3.993,0,0,1,20.856,6.6a4.306,4.306,0,0,1,1.183,2.99A11.2,11.2,0,0,1,19.99,15.4Z" transform="translate(-3.375 -3.938)" fill="#d3009a"/>
</svg>
