<svg xmlns="http://www.w3.org/2000/svg" width="18.462" height="24.903" viewBox="0 0 18.462 24.903">
  <path id="filledraisedhandsicon" d="M23.118,7.356a1.174,1.174,0,0,0-1.155,1.183v6.284a.488.488,0,1,1-.975,0V5.552a1.156,1.156,0,1,0-2.311,0v7.284a.488.488,0,1,1-.975,0V4.558a1.156,1.156,0,1,0-2.311,0V13.83a.488.488,0,1,1-.975,0V6.546a1.156,1.156,0,1,0-2.311,0v12.54L10.583,17.73c-1.429-1.3-2.64-1.861-3.625-.9-.663.678.378,1.775,1.468,3.056,1.051,1.235,3.833,5.279,6.2,6.738a4.139,4.139,0,0,0,2.223.655h3.132c2.525,0,4.293-2.177,4.293-5.354V8.539A1.183,1.183,0,0,0,23.118,7.356Z" transform="translate(-6.317 -2.875)" fill="#3c3c3c" stroke="#e3e3e3" stroke-width="1"/>
</svg>
