<svg xmlns="http://www.w3.org/2000/svg" width="28.182" height="24.75" viewBox="0 0 28.182 24.75">
  <g id="filledattendeesicon" transform="translate(0.25 0.5)">
    <path id="Path_172" data-name="Path 172" d="M23.432,30.724V27.983A5.483,5.483,0,0,0,17.949,22.5H6.983A5.483,5.483,0,0,0,1.5,27.983v2.741" transform="translate(4.5 -6.725)" fill="#3c3c3c"/>
    <path id="Path_173" data-name="Path 173" d="M18.466,9.983A5.483,5.483,0,1,1,12.983,4.5a5.483,5.483,0,0,1,5.483,5.483Z" transform="translate(3.652 -4.5)" fill="#3c3c3c"/>
    <path id="Path_5" data-name="Path 5" d="M23.432,30.724V27.983A5.483,5.483,0,0,0,17.949,22.5H6.983A5.483,5.483,0,0,0,1.5,27.983v2.741" transform="translate(-1.5 -6.725)" fill="#3c3c3c" stroke="#e3e3e3" stroke-linecap="round" stroke-linejoin="round" stroke-width="0.5"/>
    <g id="Path_6" data-name="Path 6" transform="translate(-2.348 -4.5)" fill="#3c3c3c" stroke-linecap="round" stroke-linejoin="round">
      <path d="M 12.98298645019531 15.71597671508789 C 9.821816444396973 15.71597671508789 7.250006675720215 13.14416599273682 7.249996662139893 9.982986450195313 C 7.249996662139893 6.82180643081665 9.821806907653809 4.249996662139893 12.98298645019531 4.249996662139893 C 16.14416694641113 4.249996662139893 18.71597671508789 6.82180643081665 18.71597671508789 9.982986450195313 C 18.71597671508789 13.14416599273682 16.14416694641113 15.71597671508789 12.98298645019531 15.71597671508789 Z" stroke="none"/>
      <path d="M 12.98298645019531 4.499996185302734 C 9.954816818237305 4.499996185302734 7.499996185302734 6.954816818237305 7.499996185302734 9.982986450195313 C 7.500005722045898 13.01115608215332 9.954816818237305 15.46597671508789 12.98298645019531 15.46597671508789 C 16.01115608215332 15.46597671508789 18.46597671508789 13.01115608215332 18.46597671508789 9.982986450195313 C 18.46597671508789 6.954816818237305 16.01115608215332 4.499996185302734 12.98298645019531 4.499996185302734 M 12.98298645019531 3.999996185302734 C 16.28201675415039 3.999996185302734 18.96597671508789 6.683956146240234 18.96597671508789 9.982986450195313 C 18.96597671508789 13.28201675415039 16.28201675415039 15.96597671508789 12.98298645019531 15.96597671508789 C 9.683965682983398 15.96597671508789 7.000005722045898 13.28201675415039 6.999996185302734 9.982986450195313 C 6.999996185302734 6.683956146240234 9.683956146240234 3.999996185302734 12.98298645019531 3.999996185302734 Z" stroke="none" fill="#e3e3e3"/>
    </g>
  </g>
</svg>
