<svg xmlns="http://www.w3.org/2000/svg" width="17.363" height="6.844" viewBox="0 0 17.363 6.844">
  <path id="leaveicon" d="M16.158,21.08a11.878,11.878,0,0,0-15.96,0,.654.654,0,0,0,0,.937l1.69,1.636a.691.691,0,0,0,.484.191.712.712,0,0,0,.477-.185,7.792,7.792,0,0,1,1.813-1.22.656.656,0,0,0,.382-.594V19.8a10.269,10.269,0,0,1,3.135-.481,10.471,10.471,0,0,1,3.135.475v2.045a.663.663,0,0,0,.382.594,8.045,8.045,0,0,1,1.82,1.22.681.681,0,0,0,.477.185.691.691,0,0,0,.484-.191l1.69-1.636a.647.647,0,0,0,.2-.468.638.638,0,0,0-.2-.462Z" transform="translate(0.5 -17.5)" fill="none" stroke="#000" stroke-width="1"/>
</svg>
