<svg xmlns="http://www.w3.org/2000/svg" width="17.004" height="17" viewBox="0 0 17.004 17"><defs><style>.a{fill:#0024ff;stroke:none;stroke-linecap:round;stroke-linejoin:round;stroke-width:2px;}</style></defs><path class="a" d="M12.145,8.25v-3A2.268,2.268,0,0,0,9.859,3L6.81,9.75V18h8.6a1.517,1.517,0,0,0,1.524-1.275l1.052-6.75a1.484,1.484,0,0,0-.357-1.209,1.535,1.535,0,0,0-1.167-.516ZM6.81,18H4.524A1.512,1.512,0,0,1,3,16.5V11.25a1.512,1.512,0,0,1,1.524-1.5H6.81" transform="translate(-2 -2)"/></svg>