<svg xmlns="http://www.w3.org/2000/svg" width="20" height="20" viewBox="0 0 20 20">
  <path id="linkedinicon" d="M22.9,4.5H6.209A1.632,1.632,0,0,0,4.5,6.058V22.786A1.76,1.76,0,0,0,6.209,24.5H22.9a1.67,1.67,0,0,0,1.6-1.714V6.058A1.534,1.534,0,0,0,22.9,4.5ZM10.7,21.171H7.834V12.262H10.7ZM9.366,10.908H9.345A1.471,1.471,0,0,1,7.834,9.371,1.48,1.48,0,0,1,9.381,7.834a1.476,1.476,0,0,1,1.532,1.537A1.48,1.48,0,0,1,9.366,10.908ZM21.171,21.171H18.306V16.3c0-1.167-.417-1.964-1.454-1.964a1.568,1.568,0,0,0-1.469,1.058,1.929,1.929,0,0,0-.1.7v5.074H12.419V12.262h2.865V13.5a2.9,2.9,0,0,1,2.584-1.448c1.881,0,3.3,1.24,3.3,3.912v5.2Z" transform="translate(-4.5 -4.5)" fill="#707070"/>
</svg>
