<svg xmlns="http://www.w3.org/2000/svg" width="25.277" height="21.079" viewBox="0 0 25.277 21.079">
  <g id="meetingsicon" transform="translate(-0.5 -3.421)">
    <path id="Path_5" data-name="Path 5" d="M18.429,28.848V26.732A4.232,4.232,0,0,0,14.2,22.5H5.732A4.232,4.232,0,0,0,1.5,26.732v2.116" transform="translate(0 -5.348)" fill="none" stroke="#0024ff" stroke-linecap="round" stroke-linejoin="round" stroke-width="2"/>
    <path id="Path_6" data-name="Path 6" d="M15.964,8.732A4.232,4.232,0,1,1,11.732,4.5a4.232,4.232,0,0,1,4.232,4.232Z" transform="translate(-1.768)" fill="none" stroke="#0024ff" stroke-linecap="round" stroke-linejoin="round" stroke-width="2"/>
    <path id="Path_7" data-name="Path 7" d="M33.174,28.906V26.79A4.232,4.232,0,0,0,30,22.7" transform="translate(-8.397 -5.406)" fill="none" stroke="#0024ff" stroke-linecap="round" stroke-linejoin="round" stroke-width="2"/>
    <path id="Path_8" data-name="Path 8" d="M24,4.7a4.232,4.232,0,0,1,0,8.2" transform="translate(-6.629 -0.057)" fill="none" stroke="#0024ff" stroke-linecap="round" stroke-linejoin="round" stroke-width="2"/>
  </g>
</svg>
