<svg xmlns="http://www.w3.org/2000/svg" width="15.279" height="16.482" viewBox="0 0 15.279 16.482">
  <g id="muteallicon" transform="translate(-523.928 -8.225)">
    <path id="Path_58" data-name="Path 58" d="M15.412,1.5A1.912,1.912,0,0,0,13.5,3.412v5.1a1.912,1.912,0,0,0,3.824,0v-5.1A1.912,1.912,0,0,0,15.412,1.5Z" transform="translate(513.588 8.5)" fill="none" stroke="#000" stroke-linecap="round" stroke-linejoin="round" stroke-width="1"/>
    <path id="Path_59" data-name="Path 59" d="M16.645,15v1.275a4.574,4.574,0,0,1-9.145,0V15" transform="translate(516.928 0.736)" fill="none" stroke="#000" stroke-linecap="round" stroke-linejoin="round" stroke-width="1"/>
    <path id="Path_60" data-name="Path 60" d="M18,28.5v2.549" transform="translate(511 -7.028)" fill="none" stroke="#000" stroke-linecap="round" stroke-linejoin="round" stroke-width="1"/>
    <path id="Path_61" data-name="Path 61" d="M12,34.5h5.32" transform="translate(514.34 -10.479)" fill="none" stroke="#000" stroke-linecap="round" stroke-linejoin="round" stroke-width="1"/>
    <line id="Line_106" data-name="Line 106" x1="13" y1="14" transform="translate(525.5 10)" fill="none" stroke="#000" stroke-linecap="round" stroke-width="1"/>
    <path id="Path_162" data-name="Path 162" d="M15.412,1.5A1.912,1.912,0,0,0,13.5,3.412v5.1a1.912,1.912,0,0,0,3.824,0v-5.1A1.912,1.912,0,0,0,15.412,1.5Z" transform="translate(518.16 7.225)" fill="none" stroke="#000" stroke-linecap="round" stroke-linejoin="round" stroke-width="1"/>
    <path id="Path_163" data-name="Path 163" d="M16.645,15v1.275a4.518,4.518,0,0,1-4.572,4.461" transform="translate(521.5 -0.539)" fill="none" stroke="#000" stroke-linecap="round" stroke-linejoin="round" stroke-width="1"/>
    <path id="Path_164" data-name="Path 164" d="M18,28.5v2.549" transform="translate(515.572 -8.303)" fill="none" stroke="#000" stroke-linecap="round" stroke-linejoin="round" stroke-width="1"/>
    <path id="Path_165" data-name="Path 165" d="M12,34.5h5.32" transform="translate(518.912 -11.754)" fill="none" stroke="#000" stroke-linecap="round" stroke-linejoin="round" stroke-width="1"/>
  </g>
</svg>
