<svg xmlns="http://www.w3.org/2000/svg" width="22" height="28" viewBox="0 0 22 28">
  <g id="notificationicon" transform="translate(0 0)">
    <path id="Path_1" data-name="Path 1" d="M20.37,28.336a.911.911,0,0,0-.893.717,1.762,1.762,0,0,1-.352.766,1.329,1.329,0,0,1-1.132.415,1.351,1.351,0,0,1-1.132-.415,1.762,1.762,0,0,1-.352-.766.911.911,0,0,0-.893-.717h0a.917.917,0,0,0-.893,1.118,3.142,3.142,0,0,0,3.27,2.609,3.136,3.136,0,0,0,3.27-2.609.92.92,0,0,0-.893-1.118Z" transform="translate(-7.012 -4.063)" fill="#0024ff"/>
    <path id="Path_2" data-name="Path 2" d="M28.5,24.645c-1.06-1.419-3.145-2.251-3.145-8.606,0-6.523-2.836-9.144-5.478-9.773-.248-.063-.427-.147-.427-.412v-.2A1.7,1.7,0,0,0,17.8,3.93h-.041A1.7,1.7,0,0,0,16.1,5.65v.2c0,.259-.179.35-.427.412C13.027,6.9,10.2,9.516,10.2,16.039c0,6.355-2.085,7.18-3.145,8.606a1.389,1.389,0,0,0,1.094,2.223H27.425A1.391,1.391,0,0,0,28.5,24.645Zm-2.684.405H9.765a.307.307,0,0,1-.227-.51A8.488,8.488,0,0,0,10.983,22.2a16.068,16.068,0,0,0,.984-6.166,10.854,10.854,0,0,1,1.438-6.068,4.415,4.415,0,0,1,2.663-1.93,2.4,2.4,0,0,0,1.28-.734.539.539,0,0,1,.819-.014,2.484,2.484,0,0,0,1.294.748,4.415,4.415,0,0,1,2.663,1.93,10.854,10.854,0,0,1,1.438,6.068,16.068,16.068,0,0,0,.984,6.166,8.583,8.583,0,0,0,1.48,2.37A.29.29,0,0,1,25.815,25.05Z" transform="translate(-6.775 -3.931)" fill="#0024ff"/>
  </g>
</svg>
