<svg xmlns="http://www.w3.org/2000/svg" width="10.961" height="15" viewBox="0 0 10.961 15">
  <path id="raisehandicon" d="M16.088,5.707a.68.68,0,0,0-.659.693v3.681a.278.278,0,1,1-.556,0V4.65a.66.66,0,1,0-1.318,0V8.916a.278.278,0,1,1-.556,0V4.068a.66.66,0,1,0-1.318,0V9.5a.278.278,0,1,1-.556,0V5.232a.66.66,0,1,0-1.318,0v7.345l-.868-.794c-.815-.764-1.506-1.09-2.068-.528-.378.4.216,1.04.837,1.79.6.723,2.187,3.092,3.54,3.947a2.321,2.321,0,0,0,1.268.384H14.3c1.44,0,2.449-1.275,2.449-3.136V6.4A.684.684,0,0,0,16.088,5.707Z" transform="translate(-6.29 -2.875)" fill="none" stroke="#000" stroke-width="1"/>
</svg>
