<svg xmlns="http://www.w3.org/2000/svg" width="11.182" height="9.184" viewBox="0 0 11.182 9.184">
  <path id="replyicon" d="M3037.057,1730.13s-.2-3.362-2.1-4.987a6.257,6.257,0,0,0-4.2-1.438v-1.252s-.009-.245-.13-.293a.326.326,0,0,0-.2-.024l-.106.074c-.026.018-3.213,2.722-3.213,2.722a.179.179,0,0,0-.053.151.249.249,0,0,0,.053.159l3.282,2.78s.143.08.227,0a1.341,1.341,0,0,0,.118-.125l.021-1.426a8.993,8.993,0,0,1,3.571.634,4.585,4.585,0,0,1,1.8,1.246,4.344,4.344,0,0,1,.93,1.781" transform="translate(-3026.557 -1721.627)" fill="none" stroke="#515151" stroke-linecap="round" stroke-linejoin="round" stroke-width="1"/>
</svg>
