<svg xmlns="http://www.w3.org/2000/svg" width="13.003" height="8" viewBox="0 0 13.003 8">
  <g id="seenicon" transform="translate(0 0)">
    <g id="Icon_ionic-ios-checkmark" data-name="Icon ionic-ios-checkmark" transform="translate(-10.435 -12.206)" fill="#0024ff">
      <path d="M 13.68033599853516 19.95624732971191 C 13.59870624542236 19.95624732971191 13.45233631134033 19.9036865234375 13.30848598480225 19.75555801391602 L 10.70511722564697 17.07465744018555 L 11.46139717102051 16.29583930969238 L 13.50569629669189 18.40102767944336 L 13.68570613861084 18.58640670776367 L 13.86503601074219 18.40036773681641 L 19.56399726867676 12.48837184906006 L 20.31424522399902 13.2829122543335 L 14.09029293060303 19.72579383850098 L 14.05281639099121 19.75990676879883 C 13.92597579956055 19.88284683227539 13.78673648834229 19.95624732971191 13.68033599853516 19.95624732971191 Z" stroke="none"/>
      <path d="M 19.56213188171387 12.85053634643555 L 14.0450267791748 18.5738697052002 L 13.68636512756348 18.94593048095703 L 13.32634544372559 18.5751895904541 L 11.46139717102051 16.65470504760742 L 11.05359649658203 17.07465362548828 L 13.48784637451172 19.58139038085938 C 13.58291625976563 19.67929840087891 13.66572570800781 19.7048397064209 13.68027687072754 19.70624923706055 C 13.70226669311523 19.70578956604004 13.78281593322754 19.6734504699707 13.87885665893555 19.58036804199219 L 13.92537117004395 19.53670501708984 L 19.96855545043945 13.28094863891602 L 19.56213188171387 12.85053634643555 M 19.56450653076172 12.20624923706055 C 19.61161613464355 12.20624923706055 19.66343688964844 12.22565841674805 19.69641494750977 12.26446914672852 L 20.52557563781738 13.14256858825684 C 20.59623718261719 13.2153491973877 20.59623718261719 13.33662986755371 20.5302848815918 13.41910934448242 L 14.23153686523438 19.93941879272461 C 14.22682571411133 19.93941879272461 14.22682571411133 19.93941879272461 14.22682571411133 19.93941879272461 C 14.14673614501953 20.01704025268555 13.93001556396484 20.20624923706055 13.68033599853516 20.20624923706055 C 13.50601577758789 20.20624923706055 13.29873657226563 20.1043701171875 13.12913513183594 19.92971038818359 L 10.49090576171875 17.21291923522949 C 10.41552543640137 17.13528823852539 10.41552543640137 17.01400947570801 10.49090576171875 16.9363899230957 L 11.32948684692383 16.07282829284668 C 11.3671760559082 16.03401947021484 11.41428565979004 16.01461982727051 11.46139526367188 16.01461982727051 C 11.50850677490234 16.01461982727051 11.55561637878418 16.03401947021484 11.59330558776855 16.07282829284668 L 13.68504524230957 18.22686004638672 L 19.43259620666504 12.26446914672852 C 19.465576171875 12.22565841674805 19.51268577575684 12.20624923706055 19.56450653076172 12.20624923706055 Z" stroke="none" fill="#fff"/>
    </g>
    <g id="Icon_ionic-ios-checkmark-2" data-name="Icon ionic-ios-checkmark" transform="translate(-7.576 -12.206)" fill="#0024ff">
      <path d="M 13.68033599853516 19.95624732971191 C 13.59870624542236 19.95624732971191 13.45233631134033 19.9036865234375 13.30848598480225 19.75555801391602 L 10.70511722564697 17.07465744018555 L 11.46139717102051 16.29583930969238 L 13.50569629669189 18.40102767944336 L 13.68570613861084 18.58640670776367 L 13.86503601074219 18.40036773681641 L 19.56399726867676 12.48837184906006 L 20.31424522399902 13.2829122543335 L 14.09029293060303 19.72579383850098 L 14.05281639099121 19.75990676879883 C 13.92597579956055 19.88284683227539 13.78673648834229 19.95624732971191 13.68033599853516 19.95624732971191 Z" stroke="none"/>
      <path d="M 19.56213188171387 12.85053634643555 L 14.0450267791748 18.5738697052002 L 13.68636512756348 18.94593048095703 L 13.32634544372559 18.5751895904541 L 11.46139717102051 16.65470504760742 L 11.05359649658203 17.07465362548828 L 13.48784637451172 19.58139038085938 C 13.58291625976563 19.67929840087891 13.66572570800781 19.7048397064209 13.68027687072754 19.70624923706055 C 13.70226669311523 19.70578956604004 13.78281593322754 19.6734504699707 13.87885665893555 19.58036804199219 L 13.92537117004395 19.53670501708984 L 19.96855545043945 13.28094863891602 L 19.56213188171387 12.85053634643555 M 19.56450653076172 12.20624923706055 C 19.61161613464355 12.20624923706055 19.66343688964844 12.22565841674805 19.69641494750977 12.26446914672852 L 20.52557563781738 13.14256858825684 C 20.59623718261719 13.2153491973877 20.59623718261719 13.33662986755371 20.5302848815918 13.41910934448242 L 14.23153686523438 19.93941879272461 C 14.22682571411133 19.93941879272461 14.22682571411133 19.93941879272461 14.22682571411133 19.93941879272461 C 14.14673614501953 20.01704025268555 13.93001556396484 20.20624923706055 13.68033599853516 20.20624923706055 C 13.50601577758789 20.20624923706055 13.29873657226563 20.1043701171875 13.12913513183594 19.92971038818359 L 10.49090576171875 17.21291923522949 C 10.41552543640137 17.13528823852539 10.41552543640137 17.01400947570801 10.49090576171875 16.9363899230957 L 11.32948684692383 16.07282829284668 C 11.3671760559082 16.03401947021484 11.41428565979004 16.01461982727051 11.46139526367188 16.01461982727051 C 11.50850677490234 16.01461982727051 11.55561637878418 16.03401947021484 11.59330558776855 16.07282829284668 L 13.68504524230957 18.22686004638672 L 19.43259620666504 12.26446914672852 C 19.465576171875 12.22565841674805 19.51268577575684 12.20624923706055 19.56450653076172 12.20624923706055 Z" stroke="none" fill="#fff"/>
    </g>
  </g>
</svg>
